<?xml version="1.0" encoding="UTF-8" standalone="no"?>
<!-- Created with Inkscape (http://www.inkscape.org/) -->

<svg
   xmlns:dc="http://purl.org/dc/elements/1.1/"
   xmlns:cc="http://creativecommons.org/ns#"
   xmlns:rdf="http://www.w3.org/1999/02/22-rdf-syntax-ns#"
   xmlns:svg="http://www.w3.org/2000/svg"
   xmlns="http://www.w3.org/2000/svg"
   xmlns:sodipodi="http://sodipodi.sourceforge.net/DTD/sodipodi-0.dtd"
   xmlns:inkscape="http://www.inkscape.org/namespaces/inkscape"
   id="svg3086"
   version="1.1"
   inkscape:version="0.48.3.1 r9886"
   width="343"
   height="223"
   sodipodi:docname="brandon-and-sarah.svg">
  <metadata
     id="metadata3092">
    <rdf:RDF>
      <cc:Work
         rdf:about="">
        <dc:format>image/svg+xml</dc:format>
        <dc:type
           rdf:resource="http://purl.org/dc/dcmitype/StillImage" />
      </cc:Work>
    </rdf:RDF>
  </metadata>
  <defs
     id="defs3090" />
  <sodipodi:namedview
     pagecolor="#ffffff"
     bordercolor="#666666"
     borderopacity="1"
     objecttolerance="10"
     gridtolerance="10"
     guidetolerance="10"
     inkscape:pageopacity="0"
     inkscape:pageshadow="2"
     inkscape:window-width="1224"
     inkscape:window-height="926"
     id="namedview3088"
     showgrid="false"
     inkscape:zoom="1.4142136"
     inkscape:cx="314.61004"
     inkscape:cy="102.55258"
     inkscape:window-x="0"
     inkscape:window-y="18"
     inkscape:window-maximized="0"
     inkscape:current-layer="svg3086" />
  <path
     style="fill:#000000"
     d="m 142.26378,214.0331 c -3.16648,-1.43738 -5.25765,-3.50333 -8.28114,-8.18126 -11.35167,-17.56324 -8.8794,-32.77191 8.14957,-50.13367 l 7.63266,-7.78183 -5.96792,-7.71817 c -13.24352,-17.12754 -14.21448,-29.02622 -2.97357,-36.43973 3.35658,-2.21371 6.39583,-2.24278 10.90235,-0.1043 7.12485,3.38096 10.14393,18.32586 3.70208,18.32586 -0.64471,0 -1.47469,-1.89172 -1.84441,-4.20382 -1.42983,-8.94168 -7.04255,-13.7327 -12.49964,-10.66972 -3.8199,2.14406 -5.25414,5.62388 -4.65604,11.2967 0.58654,5.56311 4.22386,11.60042 12.55129,20.83292 l 5.19181,5.75609 2.89498,-1.71011 c 5.27897,-3.11837 11.9074,-10.30631 14.84016,-16.09284 3.36578,-6.64091 7.14895,-10.53788 9.74483,-10.03796 1.58205,0.30468 1.99435,2.10723 3.05137,13.34051 1.29073,13.71708 4.56569,26.27005 7.10816,27.24568 2.45485,0.94202 4.79958,-3.0794 8.75888,-15.0222 2.0486,-6.17939 3.92092,-11.76956 4.16071,-12.42261 0.2398,-0.65304 -1.39414,-2.12102 -3.63096,-3.26216 -4.81128,-2.45453 -5.90083,-5.43068 -4.13988,-11.30821 1.43051,-4.77461 6.00133,-9.74227 8.96401,-9.74227 1.1423,0 3.03071,0.95379 4.19646,2.11954 2.19701,2.19701 2.20876,2.85068 0.25498,14.19408 l -0.65685,3.81362 8.64116,-0.70114 8.64117,-0.70114 0,2.39365 c 0,1.3165 -0.6405,8.01589 -1.42333,14.88752 -2.16583,19.01135 -2.71843,28.35938 -1.76138,29.79623 1.07843,1.61909 4.63379,-2.80023 8.67927,-10.78836 1.52807,-3.01731 3.79533,-7.09707 5.03835,-9.06614 1.46956,-2.32792 2.0832,-4.5052 1.75446,-6.22494 -1.17698,-6.15697 5.43099,-23.78302 10.37381,-27.67105 3.05856,-2.40586 7.15695,-2.68939 7.97719,-0.55187 0.31659,0.825 1.14836,1.5 1.84838,1.5 0.98483,0 1.15482,2.48859 0.7514,11 -0.45716,9.64511 -0.3238,11 1.08274,11 1.8645,0 11.41748,-9.19044 17.32241,-16.66501 3.9364,-4.98276 4.16021,-5.66976 6.34308,-19.4708 2.90166,-18.345464 4.77184,-24.951477 9.41368,-33.251866 4.14312,-7.408598 7.11722,-9.529166 11.27776,-8.041196 3.02165,1.080655 6.32218,6.663949 6.32218,10.694816 0,7.428986 -6.97431,21.874869 -21.14329,43.794086 l -6.82619,10.56004 -0.55659,11.93996 -0.55659,11.93997 5.16778,-9.98251 c 6.41082,-12.38366 8.86507,-15.63365 14.74889,-19.53093 3.76885,-2.49639 5.49543,-3.02095 9.15539,-2.78157 L 316.5,120.5 l 1.67923,5.5 c 0.92357,3.025 2.46994,9.05819 3.43636,13.40709 l 1.75713,7.90709 4.06364,-4.66523 c 4.23734,-4.86463 5.39481,-5.41778 7.31621,-3.49638 1.3841,1.3841 -3.61891,8.90401 -7.99873,12.02271 -5.4208,3.85995 -7.46666,1.13729 -11.73232,-15.61362 C 313.90968,131.19558 313,126.83464 313,125.87068 c 0,-5.86759 -8.32441,-0.49928 -14.93982,9.63451 C 293.39208,142.656 284,163.20044 284,166.26073 c 0,0.82191 -0.66968,2.05016 -1.48817,2.72945 -2.41299,2.0026 -2.70846,-0.44437 -2.34652,-19.43296 0.18408,-9.65746 0.18936,-17.55861 0.0117,-17.55811 -0.17763,4.9e-4 -2.42763,2.24157 -5,4.98018 -6.082,6.47507 -10.9953,10.02071 -13.88599,10.02071 -3.49725,0 -6.27564,-5.27619 -6.31909,-12 -0.0334,-5.1632 -0.1304,-5.37753 -1.58461,-3.5 -0.85199,1.1 -2.84047,4.53068 -4.41885,7.62373 -1.57838,3.09306 -4.21411,6.96807 -5.85719,8.61114 -2.60339,2.6034 -9.35245,15.98095 -13.16386,26.09259 -0.68983,1.83011 -2.3102,4.01936 -3.60083,4.86501 -2.09859,1.37506 -2.59089,1.37748 -4.65823,0.0229 -3.23453,-2.11934 -4.71757,-8.01251 -4.77702,-18.98246 -0.0453,-8.3619 1.23029,-22.1915 2.62719,-28.48291 0.47418,-2.13562 0.19953,-2.25 -5.40262,-2.25 l -5.9022,0 -1.76747,7.50528 c -2.85604,12.12778 -7.5045,22.68713 -10.77079,24.46671 -2.7101,1.47655 -2.90133,1.42072 -5.67872,-1.658 -2.93779,-3.25652 -5.07608,-9.163 -7.17312,-19.81399 l -1.18133,-6 -1.36874,5 c -2.21926,8.10694 -4.05466,11.5 -6.22066,11.5 C 171.8707,150 169,146.47874 169,143.77749 c 0,-2.32253 -0.10061,-2.30218 -6.51515,1.31797 -5.40028,3.04773 -6.39657,4.22303 -4.54817,5.3654 0.51517,0.3184 1.57351,1.80745 2.35186,3.30902 0.77835,1.50157 3.25262,5.71139 5.49838,9.35516 10.61222,17.21844 11.91425,36.31209 3.15639,46.28674 -5.52583,6.29358 -18.17057,8.48385 -26.67953,4.62132 z m 16.16745,-8.41285 c 1.71601,-1.30886 4.40095,-4.73324 5.96653,-7.60973 2.59242,-4.76313 2.80692,-5.91385 2.403,-12.89123 -0.40803,-7.04854 -0.94869,-8.63865 -6.76041,-19.88258 -3.47429,-6.72174 -6.93474,-12.7341 -7.68987,-13.3608 -1.0916,-0.90595 -3.01462,0.51102 -9.38334,6.91405 -8.9344,8.98254 -11.90241,14.40458 -12.70002,23.20083 -0.60429,6.66423 0.72081,11.53825 4.97341,18.29338 3.79447,6.0274 6.74361,7.62548 14.16508,7.67579 4.71829,0.032 6.53288,-0.43841 9.02562,-2.33971 z m 19.53667,-72.43342 c 2.84653,-9.66255 2.16653,-12.37879 -1.2985,-5.18683 -1.63542,3.39444 -2.6536,7.20359 -2.65963,9.95 -0.0129,5.89535 1.27468,4.34584 3.95813,-4.76317 z m 77.02409,-11.17187 c 1.34731,-2.51747 0.78412,-3.52676 -1.48261,-2.65693 -1.82585,0.70064 -7.51198,12.18194 -7.49909,15.14197 0.008,1.79778 5.20155,-5.42177 8.9817,-12.48504 z m -47.91598,-2.18453 c 0.46029,-2.38173 0.85649,-5.79293 0.88044,-7.58043 0.0368,-2.74363 -0.31728,-3.25 -2.27231,-3.25 -1.66039,0 -2.952,1.13187 -4.56343,3.99902 -2.91726,5.19055 -2.56091,9.98917 0.86804,11.68942 3.10471,1.53947 4.01979,0.66564 5.08726,-4.85801 z M 304.06475,79.5 c 1.41951,-6.37656 0.92789,-13 -0.96491,-13 -1.93817,0 -7.71502,10.660122 -10.02537,18.5 -2.24021,7.601841 -5.08103,21.27792 -5.05946,24.35696 0.0231,3.29207 14.78257,-24.164718 16.04974,-29.85696 z M 74.606959,181.90547 c -4.006834,-3.15177 -6.766308,-9.36319 -6.82012,-15.3517 -0.07077,-7.87534 2.337713,-11.00053 9.635224,-12.50247 2.415467,-0.49715 3.225533,-1.46391 4.672496,-5.57636 2.445225,-6.94962 2.306194,-9.51711 -0.844559,-15.59649 -2.137245,-4.12381 -2.746176,-6.67716 -2.732839,-11.45927 0.01027,-3.68387 0.561041,-6.80848 1.372445,-7.78616 1.605436,-1.93444 6.426639,-2.16182 7.911129,-0.37312 1.712164,2.06303 2.437489,12.78318 1.323949,19.5677 -0.910855,5.54961 -0.782754,7.02503 1.041879,12 1.144234,3.11982 2.454096,6.07914 2.910804,6.57627 1.096157,1.19318 7.738313,-3.90523 9.163903,-7.03405 0.83473,-1.83205 0.7998,-2.72273 -0.14303,-3.64695 -0.9877,-0.96818 -1.75161,-0.59806 -3.667912,1.77713 -2.113311,2.61938 -2.421024,2.74277 -2.425361,0.97251 C 95.996159,139.87702 98.819495,137 102.3567,137 c 4.09733,0 5.6433,1.54016 5.6433,5.62208 0,2.53707 -0.87531,3.97131 -4.11726,6.7463 -2.2645,1.93832 -5.453535,3.81771 -7.086756,4.17643 l -2.969491,0.65221 0.778601,6.15149 c 0.42823,3.38332 0.705711,7.50149 0.616624,9.15149 -0.279611,5.17874 -3.054939,10.97027 -6.126483,12.78467 -4.094689,2.41879 -11.16651,2.23371 -14.488276,-0.3792 z m 11.248317,-2.43715 c 3.533592,-2.97332 4.835805,-9.75318 3.451194,-17.96832 -0.834469,-4.95105 -0.881705,-5.00288 -4.824595,-5.29467 -3.712769,-0.27476 -4.113693,-0.0382 -5.932345,3.5 C 76.225048,164.22765 74.031157,167 72.776918,167 c -0.502208,0 0.0063,-1.29123 1.130082,-2.86939 1.123754,-1.57817 2.485069,-4.03163 3.025145,-5.45214 1.516843,-3.9896 -1.165214,-2.38777 -3.774035,2.254 -4.109289,7.31149 -2.121903,16.35135 4.290551,19.51607 4.135462,2.04096 4.925643,1.94883 8.406615,-0.98022 z m 2.682027,-26.52868 C 89.257484,151.77437 87.184894,146 86.046461,146 c -0.936489,0 -2.986755,6.72637 -2.269035,7.44409 0.944481,0.94448 4.069044,0.61334 4.759877,-0.50445 z M 87,120.5 c -0.409825,-4.09825 -0.847723,-5 -2.428053,-5 -4.147404,0 -4.016746,10.14764 0.230488,17.90106 L 86.5,136.5 87,131 c 0.275,-3.025 0.275,-7.75 0,-10.5 z m -43.878198,13.59644 c -0.758008,-0.48011 -2.558008,-3.04854 -4,-5.70762 -2.163062,-3.98875 -3.409173,-5.1049 -7.121802,-6.37905 -3.39232,-1.16423 -4.930382,-2.40164 -6.248446,-5.02707 -2.147925,-4.27842 -2.194378,-7.12855 -0.224308,-13.76249 1.45323,-4.893558 1.406464,-5.619281 -0.96495,-14.974452 C 21.317887,75.44664 19.041425,61.121762 18.740609,51.612179 18.608274,47.42871 18.193142,44.00455 17.818094,44.002936 c -1.112582,-0.0048 -4.643781,5.424599 -6.800597,10.456245 -1.4518076,3.38693 -2.4937055,4.595758 -3.7522197,4.35339 C 2.8011125,57.952852 5.6180397,49.279717 13.783731,38.742679 18.818213,32.246165 19.47764,30.830348 20.184492,25 21.46536,14.434984 23.053391,8 24.379768,8 c 0.680885,0 2.043811,0.5892436 3.028725,1.3094302 1.551382,1.1343978 1.644511,1.8361678 0.696707,5.2499998 -0.601725,2.167314 -1.096556,5.55892 -1.099623,7.536904 L 27,25.692667 32.25,23.878979 c 7.217257,-2.493304 10.063354,-2.327633 13.783084,0.802313 2.90165,2.441578 3.146637,3.089747 2.740264,7.25 -0.268541,2.749183 -2.704442,9.311997 -6.116389,16.478795 -3.118565,6.550548 -5.53366,12.046546 -5.366877,12.213328 0.166782,0.166783 2.532243,-0.384052 5.256579,-1.224077 5.977213,-1.84302 11.345377,-1.324465 15.278031,1.475832 l 2.918344,2.078044 4.128482,-5.885555 C 69.221567,50.866238 69.865449,49 67.654988,49 c -4.478022,0 -6.056156,-8.189618 -2.653547,-13.770392 2.970513,-4.872074 6.084089,-5.952589 10.182707,-3.53374 3.206758,1.892507 3.31267,2.160007 3.219131,8.130511 L 78.306559,46 l 5.84672,0 c 6.682761,0 6.657383,-0.05057 4.443955,8.855655 C 86.726939,62.381209 85.614122,75 86.820759,75 c 0.518025,0 2.215062,-1.6875 3.771195,-3.75 7.773559,-10.303087 15.180406,-18.388627 18.125216,-19.786028 2.10931,-1.000937 4.48006,-1.329996 6.64967,-0.922974 l 3.37169,0.632533 0.46217,18.444668 c 0.28563,11.399207 0.87975,18.862255 1.55539,19.537889 1.65756,1.657565 7.2073,-10.2992 12.14035,-26.156088 5.77435,-18.561175 5.97124,-19 8.52488,-19 3.96932,0 4.60454,1.750271 3.97085,10.941142 L 144.80206,63.5 l 4.17677,-4.75 c 3.19205,-3.63012 4.86573,-4.75 7.09898,-4.75 1.6072,0 2.93111,0.3375 2.94201,0.75 0.0109,0.4125 0.29064,5.97711 0.62165,12.3658 0.60968,11.767391 0.18869,13.523728 -2.95269,12.31827 -2.1635,-0.830214 -2.44987,-2.923399 -1.70114,-12.43407 0.36805,-4.675 0.51674,-8.69215 0.33043,-8.926999 -0.52162,-0.65753 -2.93153,2.890948 -5.84486,8.606253 -1.45204,2.84859 -3.19025,8.444497 -3.86269,12.435348 -1.30458,7.742601 -2.56169,9.144555 -5.67407,6.327882 -1.83676,-1.662241 -1.9111,-2.737268 -1.30362,-18.852621 C 138.98715,57.190438 139.03796,49.725 138.74575,50 c -0.29222,0.275 -1.9025,6.125 -3.5784,13 -5.53898,22.722343 -10.07647,34 -13.67968,34 -0.75688,0 -2.53794,-1.0125 -3.95791,-2.25 -2.17703,-1.897267 -2.76464,-3.633992 -3.74825,-11.078157 l -1.16647,-8.828158 -2.41942,4.828158 C 107.07861,85.892099 104.19002,89 101.52569,89 c -5.693763,0 -6.005507,-6.678713 -1.07358,-23 0.56309,-1.86346 -1.158785,-0.618423 -6.762656,4.889866 -8.338331,8.196109 -9.797149,8.489969 -12.308529,2.479389 C 79.734109,69.427869 80.053431,63.909873 82.487341,54.25 L 83.810136,49 80.869335,49 c -3.331187,0 -4.601911,1.214872 -12.342389,11.799902 -5.103494,6.97898 -5.293551,7.461512 -4.323164,10.975967 0.558256,2.021835 0.834743,7.797729 0.614416,12.835319 -0.354881,8.114078 -0.81969,9.999661 -4.073282,16.524032 -3.992734,8.00656 -7.783928,12.53868 -13.843011,16.54839 C 44.755857,119.1038 43,120.4887 43,120.76116 c 0,0.27246 1.392075,2.92848 3.093501,5.90226 1.701425,2.97378 2.840548,6.06606 2.531385,6.87173 -0.62363,1.62515 -3.379644,1.90625 -5.503084,0.56129 z m -8.002777,-14.36989 c 0.02852,-1.64805 -5.656717,-16.7215 -6.307752,-16.72395 -0.3788,-0.001 -0.980495,1.94305 -1.3371,4.32106 -0.671732,4.47943 1.344161,11.29138 3.814614,12.89004 1.426791,0.9233 3.81108,0.62005 3.830238,-0.48715 z M 48.201131,111.25 C 56.11174,103.12725 60.681149,87.707208 58.535811,76.374324 L 57.802393,72.5 55.151197,75.610119 C 53.693039,77.320685 48.3375,82.168219 43.25,86.382417 37.895147,90.818075 34,94.7968 34,95.830894 c 0,1.605504 5.390294,17.373566 6.618462,19.360786 1.05739,1.71089 3.123895,0.63666 7.582669,-3.94168 z m 1.601206,-36.610519 c 6.860977,-7.158223 7.076357,-8.707183 1.700497,-12.229581 -2.040377,-1.336906 -3.029965,-1.398853 -6.214816,-0.389034 -6.376679,2.021849 -12.207919,5.900976 -14.832579,9.867106 -2.4915,3.76491 -2.494546,3.798673 -0.919751,10.194724 0.869015,3.529517 1.781215,7.022403 2.027111,7.761968 0.525373,1.58013 8.61512,-5.163795 18.239538,-15.205183 z m 55.802483,3.152366 c 3.33984,-6.632022 7.24485,-22.275509 5.897,-23.623361 -1.18498,-1.184979 -5.17402,4.140516 -6.40741,8.554091 C 101.79014,74.546652 100.09762,85 101.48743,85 c 0.26808,0 2.12091,-3.243669 4.11739,-7.208153 z M 34.926661,55.909692 C 43.882936,38.816323 45.751435,31.384499 42.196514,26.994357 l -1.803486,-2.227211 -4.946514,2.580846 c -10.336419,5.393032 -9.980182,4.645898 -9.701185,20.346278 0.269401,15.160316 1.021057,21.951753 2.285661,20.65163 0.452535,-0.465245 3.555587,-6.061539 6.895671,-12.436208 z M 72.681292,42.116153 c 2.135652,-7.376352 -1.480523,-12.123896 -5.066282,-6.651336 -2.187676,3.338815 -2.112678,9.146458 0.13499,10.453254 2.656009,1.544205 3.592484,0.822203 4.931292,-3.801918 z M 186.31284,93.75 c -2.58823,-2.860565 -4.35116,-7.884634 -5.00028,-14.25 -0.28044,-2.75 -0.69723,-5.194241 -0.92621,-5.431647 -0.22897,-0.237406 -1.92731,1.032875 -3.7741,2.822848 -4.19582,4.066755 -9.27062,4.11524 -11.38768,0.108799 -2.78716,-5.274587 0.99386,-20.440982 5.72757,-22.974388 1.17715,-0.62999 3.58198,-0.985156 5.34407,-0.789258 l 3.20379,0.356179 -2.6977,1.159099 c -3.46596,1.489191 -5.59811,4.800073 -7.36443,11.435783 -3.02333,11.358018 -1.17564,12.711539 5.56711,4.078167 l 4.47864,-5.734417 0.66068,-16.015583 c 0.80454,-19.502581 1.55428,-25.458401 4.06064,-32.256938 C 186.24161,10.734159 189.02095,8 192.60006,8 c 3.45969,0 4.7078,2.603058 5.18107,10.805603 0.64261,11.137642 -1.67098,21.581243 -8.1304,36.700834 L 184.09959,68.5 185.03293,76 c 0.51333,4.125 1.66016,9.430885 2.54851,11.790854 1.93333,5.136051 2.98874,4.651887 6.78828,-3.114105 6.4573,-13.198239 8.86619,-20.299687 11.93232,-35.176749 1.05488,-5.118294 1.58491,-6.049647 3.60688,-6.337845 1.97489,-0.281488 2.27921,0.01044 1.8243,1.75 C 211.43293,46.06047 211.6041,47 212.1136,47 c 0.5095,0 4.95838,-2.025 9.8864,-4.5 9.85413,-4.949043 11.12792,-5.229225 13.40793,-2.949212 1.21255,1.212552 1.41517,2.848346 0.92897,7.5 C 235.9949,50.322855 235.99505,53 236.33722,53 c 0.34217,0 1.52225,-1.764374 2.62239,-3.92083 2.44469,-4.791983 10.18306,-12.802714 13.63536,-14.115279 3.78815,-1.44025 8.99409,-1.163973 10.41899,0.552933 1.50367,1.811802 0.86735,10.639679 -2.03548,28.239247 C 258.99467,75.78373 258.3895,88 259.77749,88 c 0.42763,0 1.7985,-0.715136 3.04638,-1.589191 1.24789,-0.874055 2.92302,-1.338178 3.72251,-1.031384 2.68308,1.029592 1.48797,3.562402 -2.68557,5.691583 -4.11105,2.097304 -4.15693,2.098445 -6.75,0.1678 -4.42441,-3.294157 -4.70222,-7.835876 -1.74175,-28.474799 C 256.81608,52.676118 258,42.72691 258,40.654658 l 0,-3.76773 -3.02996,1.789844 c -1.66648,0.984414 -4.34675,3.14842 -5.95616,4.808904 -3.9032,4.027079 -11.65042,17.73043 -13.7179,24.264324 -0.95472,3.017221 -2.25213,5.25 -3.05065,5.25 -1.13846,0 -1.33125,-2.709581 -1.06738,-15.001396 0.17713,-8.250768 0.0407,-15.000768 -0.30311,-15 -0.8008,0.0018 -14.97624,6.610169 -16.6058,7.741387 -0.94957,0.65917 -0.75584,2.101025 0.84744,6.307261 1.45485,3.816808 1.94106,6.900198 1.6206,10.27724 -0.89143,9.394073 -7.57835,13.648653 -10.78335,6.860955 l -1.56506,-3.314554 -3.80927,9.624425 C 194.83637,95.005529 190.82276,98.734464 186.31284,93.75 z m 24.8939,-32.49443 c -0.22866,-2.334436 -0.81872,-3.995379 -1.31124,-3.690983 -1.07753,0.665945 -1.20847,11.789108 -0.15124,12.846344 1.08943,1.089426 1.94273,-4.25238 1.46248,-9.155361 z M 189.17575,38.5 c 2.36616,-8.959353 3.63987,-26.5 1.92428,-26.5 -2.91246,0 -5.59446,11.845922 -6.5658,29 -0.57971,10.237882 -0.55227,10.425109 1.09913,7.5 0.93153,-1.65 2.5256,-6.15 3.54239,-10 z"
     id="path3096"
     inkscape:connector-curvature="0" />
  <path
     style="fill:#000000;fill-opacity:1;fill-rule:nonzero;stroke:none"
     id="path3117"
     d="m 39.11312,25.149191 c 0.26038,-0.07225 0.531447,-0.09273 0.799807,-0.113399 0.262306,-0.01415 0.525101,-0.01655 0.787733,-0.01834 0.24816,0.002 0.496328,0.002 0.744493,0.0013 0.168011,0.0016 0.308902,0.09105 0.466329,0.133663 0.155893,0.04056 0.274932,0.148139 0.416345,0.21793 0.152077,0.0774 0.301993,0.157115 0.45114,0.23987 0.02251,0.0097 0.04501,0.01947 0.06752,0.02921 0,0 -1.048906,0.69314 -1.048906,0.69314 l 0,0 c -0.02403,-0.01239 -0.04807,-0.02477 -0.07211,-0.03716 -0.146633,-0.08523 -0.299915,-0.156953 -0.449413,-0.236927 -0.131413,-0.07479 -0.254526,-0.162431 -0.404861,-0.197149 -0.143545,-0.05001 -0.27995,-0.115551 -0.436794,-0.108436 -0.248287,-0.0014 -0.496588,-0.0026 -0.744873,-2.2e-4 -0.258921,1.98e-4 -0.518135,0.0014 -0.776401,0.02213 -0.268937,0.02356 -0.540047,0.05327 -0.795057,0.147439 0,0 0.995041,-0.773043 0.995041,-0.773043 z"
     inkscape:connector-curvature="0" />
  <path
     style="fill:#000000;fill-opacity:1;fill-rule:nonzero;stroke:none"
     id="path3119"
     d="m 40.610329,25.48326 c -0.213982,-0.07692 -0.43837,-0.113012 -0.663636,-0.135789 -0.264387,-0.02024 -0.529819,-0.02094 -0.794834,-0.02137 -0.189001,-0.008 -0.373041,0.002 -0.558832,0.03449 0,0 1.002675,-0.750907 1.002675,-0.750907 l 0,0 c 0.18727,-0.02201 0.374935,-0.01701 0.563249,-0.01447 0.268827,0.0024 0.53831,0.0024 0.806011,0.03036 0.229045,0.03019 0.452098,0.08365 0.677285,0.133694 0,0 -1.031918,0.724 -1.031918,0.724 z"
     inkscape:connector-curvature="0" />
  <path
     style="fill:#000000;fill-opacity:1;fill-rule:nonzero;stroke:none"
     id="path3133"
     d="m 256.95684,117.08994 c 0.20665,0.0622 0.41541,0.1088 0.61298,0.19778 0.18024,0.0859 0.36488,0.16272 0.54614,0.24655 0.17835,0.0893 0.34607,0.19591 0.51911,0.29454 0.11051,0.0897 0.23037,0.16522 0.34308,0.25084 0.13508,0.079 0.22879,0.20943 0.32119,0.33224 0.13807,0.18621 0.26889,0.37303 0.42266,0.54654 0.0979,0.1371 0.16307,0.2947 0.24549,0.44182 0.0579,0.0843 0.0945,0.17962 0.14355,0.26867 0,0 -1.09114,0.6262 -1.09114,0.6262 l 0,0 c -0.048,-0.0893 -0.0845,-0.18427 -0.14329,-0.26771 -0.0767,-0.14039 -0.13736,-0.29019 -0.22781,-0.42184 -0.15065,-0.17804 -0.27615,-0.37241 -0.4247,-0.55207 -0.0921,-0.11148 -0.18316,-0.22435 -0.31004,-0.2985 -0.11341,-0.078 -0.21841,-0.16599 -0.33224,-0.24351 -0.16597,-0.10092 -0.33229,-0.20179 -0.50785,-0.2854 -0.18285,-0.0796 -0.36454,-0.16142 -0.54637,-0.24321 -0.19461,-0.077 -0.39646,-0.13274 -0.60268,-0.16894 0,0 1.03192,-0.724 1.03192,-0.724 z"
     inkscape:connector-curvature="0" />
  <path
     style="fill:#000000;fill-opacity:1;fill-rule:nonzero;stroke:none"
     id="path3135"
     d="m 255.94108,116.81713 c 0.23932,-1e-4 0.47544,1.2e-4 0.7126,0.0331 0.17865,0.007 0.34362,0.0745 0.517,0.10917 0.15162,0.0683 0.31892,0.0756 0.47664,0.11964 0.19657,0.0307 0.33024,0.15152 0.46404,0.28651 0.0935,0.12784 0.21212,0.23059 0.33632,0.32698 0.0989,0.10272 0.21974,0.17869 0.32946,0.26813 0,0 -1.06399,0.66832 -1.06399,0.66832 l 0,0 c -0.11092,-0.0869 -0.22492,-0.16996 -0.32707,-0.26759 -0.12831,-0.1 -0.24833,-0.20963 -0.34658,-0.34017 -0.12063,-0.12342 -0.24989,-0.20297 -0.42498,-0.22827 -0.16119,-0.0318 -0.32061,-0.0675 -0.47741,-0.11721 -0.16672,-0.042 -0.33081,-0.0929 -0.50386,-0.10364 -0.23598,-0.027 -0.47323,-0.0199 -0.71037,-0.0152 0,0 1.0182,-0.73977 1.0182,-0.73977 z"
     inkscape:connector-curvature="0" />
  <path
     style="fill:#000000;fill-opacity:1;fill-rule:nonzero;stroke:none"
     id="path3141"
     d="m 256.797,116.44681 c 0.29008,0.12966 0.55962,0.2874 0.81262,0.48002 0.28428,0.20157 0.53224,0.44762 0.76167,0.70868 0.26948,0.2802 0.5032,0.59125 0.73975,0.8989 0.0369,0.0428 0.0737,0.0856 0.11058,0.12838 0,0 -1.06046,0.63677 -1.06046,0.63677 l 0,0 c -0.0365,-0.0451 -0.073,-0.0903 -0.10949,-0.13543 -0.23204,-0.30784 -0.46863,-0.61351 -0.7397,-0.88852 -0.22545,-0.25436 -0.46893,-0.4918 -0.74789,-0.6878 -0.25247,-0.18814 -0.52545,-0.33438 -0.819,-0.44887 0,0 1.05192,-0.69213 1.05192,-0.69213 z"
     inkscape:connector-curvature="0" />
  <path
     style="fill:#ffffff"
     id="path3150"
     d="m 226.1334,122.56474 c 0.29741,0.22798 0.54892,0.5035 0.77631,0.79958 0.25794,0.32847 0.4674,0.69141 0.68796,1.04532 0.13436,0.22745 0.26567,0.45727 0.41215,0.67722 0.16942,0.2422 0.34222,0.47852 0.50201,0.72793 0.13589,0.23165 0.30065,0.45082 0.40831,0.69834 0.0598,0.13745 0.0894,0.2551 0.13119,0.39793 0.0535,0.21238 0.0858,0.42929 0.12637,0.64441 0,0 -1.09781,0.58378 -1.09781,0.58378 l 0,0 c -0.0352,-0.21339 -0.0656,-0.42767 -0.10963,-0.6394 -0.0418,-0.15421 -0.0562,-0.22865 -0.12001,-0.37668 -0.1051,-0.24386 -0.26501,-0.46044 -0.40267,-0.68584 -0.16514,-0.24606 -0.34776,-0.47609 -0.51625,-0.71924 -0.14519,-0.22231 -0.27237,-0.456 -0.40219,-0.68747 -0.21433,-0.35211 -0.41066,-0.71823 -0.6726,-1.03822 -0.22519,-0.28107 -0.46704,-0.55925 -0.78196,-0.74259 0,0 1.05882,-0.68507 1.05882,-0.68507 z"
     inkscape:connector-curvature="0" />
  <path
     style="fill:#ffffff"
     id="path3152"
     d="m 223.50595,123.3736 c 0.31503,0.11002 0.62835,0.23211 0.93587,0.36337 0.2847,0.11734 0.54116,0.29274 0.82058,0.41882 0.30508,0.12431 0.5693,0.32317 0.84738,0.49554 0.36167,0.21768 0.70559,0.46659 1.0253,0.74211 0.32211,0.26815 0.59703,0.57481 0.84185,0.91365 0.23315,0.31599 0.40343,0.67019 0.60764,1.00375 0.1946,0.31364 0.34475,0.65077 0.4545,1.00256 0.0999,0.33534 0.11316,0.68605 0.12054,1.0333 0.003,0.24924 0.001,0.12651 0.004,0.36816 0,0 -1.10059,0.56143 -1.10059,0.56143 l 0,0 c 4.8e-4,-0.2413 0.001,-0.11909 -0.002,-0.36664 -0.009,-0.33635 -0.018,-0.67606 -0.10586,-1.0031 -0.10225,-0.34367 -0.25118,-0.67088 -0.43836,-0.97703 -0.19667,-0.3344 -0.37145,-0.68138 -0.60118,-0.9956 -0.23778,-0.33177 -0.50755,-0.62996 -0.82317,-0.89059 -0.31742,-0.26976 -0.65875,-0.51167 -1.0171,-0.72425 -0.27812,-0.1684 -0.54825,-0.35279 -0.85027,-0.47762 -0.27282,-0.13412 -0.5288,-0.30193 -0.81047,-0.41944 -0.30371,-0.12723 -0.61326,-0.26132 -0.93744,-0.32326 0,0 1.02847,-0.72516 1.02847,-0.72516 z"
     inkscape:connector-curvature="0" />
  <path
     style="fill:#ffffff"
     id="path3154"
     d="m 224.43319,123.01248 c 0.2439,0.25506 0.53517,0.45334 0.80577,0.67711 0.30907,0.24131 0.62431,0.47398 0.93008,0.7195 0.2989,0.21459 0.54362,0.48555 0.78998,0.75599 0.30646,0.34741 0.52789,0.75744 0.76238,1.1542 0.27538,0.47624 0.43909,0.9973 0.57728,1.52627 0.14,0.54284 0.25218,1.09166 0.35986,1.64154 0.0991,0.51647 0.1251,1.04292 0.1674,1.5661 0.0235,0.38692 0.009,0.1967 0.0443,0.57071 0,0 -1.07643,0.56105 -1.07643,0.56105 l 0,0 c -0.0339,-0.37711 -0.0184,-0.18671 -0.0461,-0.57123 -0.0433,-0.51877 -0.0717,-1.04033 -0.16395,-1.55338 -0.1011,-0.54945 -0.21075,-1.09638 -0.35147,-1.63743 -0.12983,-0.51993 -0.29931,-1.02486 -0.56887,-1.49116 -0.23182,-0.38923 -0.44834,-0.79299 -0.75827,-1.12782 -0.24194,-0.2671 -0.49268,-0.52229 -0.78347,-0.73721 -0.30537,-0.24485 -0.61325,-0.48604 -0.92274,-0.72566 -0.27817,-0.22613 -0.57315,-0.43066 -0.84141,-0.66945 0,0 1.0756,-0.65913 1.0756,-0.65913 z"
     inkscape:connector-curvature="0" />
  <path
     style="fill:#ffffff"
     id="path3156"
     d="m 222.2567,123.23486 c 0.43515,0.11722 0.88478,0.16987 1.32837,0.24585 0.47008,0.0926 0.94311,0.16005 1.40637,0.28404 0.32475,0.0819 0.64572,0.18757 0.94175,0.34545 0.28233,0.17723 0.55252,0.36761 0.78551,0.60661 0.2914,0.28045 0.53829,0.60057 0.78383,0.92047 0.0435,0.0508 0.0871,0.1017 0.13061,0.15255 0,0 -1.05456,0.63361 -1.05456,0.63361 l 0,0 c -0.0434,-0.0528 -0.0868,-0.10561 -0.1302,-0.15841 -0.24541,-0.31445 -0.4927,-0.62788 -0.78334,-0.90274 -0.2298,-0.22501 -0.49417,-0.41063 -0.77388,-0.56914 -0.28875,-0.14764 -0.59641,-0.25262 -0.91032,-0.33301 -0.45978,-0.11786 -0.92852,-0.19059 -1.39455,-0.27906 -0.4562,-0.0763 -0.91642,-0.13435 -1.36658,-0.24264 0,0 1.03699,-0.70358 1.03699,-0.70358 z"
     inkscape:connector-curvature="0" />
  <path
     style="fill:#ffffff"
     id="path3158"
     d="m 223.28087,124.15287 c 0.37608,0.0731 0.75131,0.14736 1.13196,0.19257 0.26344,0.0128 0.52318,0.0451 0.78445,0.0789 0.26793,0.05 0.5203,0.14906 0.76614,0.26375 0.26484,0.0957 0.47614,0.28221 0.70449,0.43923 0.21294,0.15066 0.38687,0.34336 0.55625,0.53949 0.20587,0.26208 0.38259,0.54521 0.57944,0.81394 0.21334,0.27354 0.36571,0.58445 0.51035,0.89768 0.16058,0.35605 0.2872,0.72306 0.37618,1.10322 0.10828,0.47054 0.10658,0.95241 0.0749,1.43113 -0.007,0.0751 -0.0137,0.15011 -0.0206,0.22516 0,0 -1.09753,0.54488 -1.09753,0.54488 l 0,0 c 0.009,-0.0747 0.0176,-0.14943 0.0264,-0.22415 0.0398,-0.46619 0.0379,-0.9347 -0.0648,-1.39381 -0.0894,-0.37139 -0.21093,-0.73045 -0.37005,-1.07802 -0.14341,-0.30488 -0.29086,-0.60956 -0.50011,-0.87605 -0.19306,-0.26713 -0.36977,-0.54621 -0.57826,-0.80188 -0.16497,-0.18716 -0.34084,-0.3644 -0.54233,-0.51283 -0.21952,-0.15739 -0.43345,-0.3255 -0.68984,-0.42062 -0.24095,-0.10433 -0.48842,-0.1961 -0.75035,-0.2308 -0.2581,-0.0356 -0.51709,-0.0554 -0.77583,-0.0849 -0.38396,-0.0566 -0.76276,-0.1422 -1.14782,-0.19135 0,0 1.02688,-0.71554 1.02688,-0.71554 z"
     inkscape:connector-curvature="0" />
  <path
     style="fill:#ffffff"
     id="path3160"
     d="m 226.82494,124.85083 c 0.20577,0.36931 0.39215,0.74874 0.57207,1.13114 0.15298,0.33504 0.29526,0.67539 0.41965,1.02208 0.0818,0.30345 0.16971,0.60356 0.27617,0.89925 0.12551,0.3381 0.25353,0.67649 0.35413,1.02301 0.10673,0.36546 0.21586,0.73018 0.30086,1.10142 0.0594,0.31022 0.0943,0.62431 0.12673,0.93826 0,0 -1.0906,0.56775 -1.0906,0.56775 l 0,0 c -0.0224,-0.30982 -0.049,-0.6201 -0.11509,-0.92431 -0.0897,-0.36741 -0.20417,-0.72804 -0.30722,-1.09182 -0.0952,-0.34454 -0.22255,-0.67992 -0.3523,-1.01269 -0.11321,-0.29456 -0.19672,-0.59622 -0.27612,-0.90151 -0.12044,-0.34436 -0.25838,-0.68286 -0.40135,-1.01842 -0.17703,-0.37754 -0.35686,-0.75698 -0.59008,-1.10374 0,0 1.08315,-0.63042 1.08315,-0.63042 z"
     inkscape:connector-curvature="0" />
  <path
     style="fill:#ffffff"
     id="path3168"
     d="m 156.58924,148.33024 c 0.2878,0.36568 0.57642,0.73165 0.84883,1.10886 0.24316,0.37113 0.53142,0.70933 0.78562,1.07285 0.18361,0.31672 0.30658,0.66599 0.43626,1.00759 0.11148,0.27425 0.24904,0.53522 0.34392,0.81613 0.0541,0.16253 0.10248,0.32686 0.15332,0.49043 0,0 -1.0827,0.59416 -1.0827,0.59416 l 0,0 c -0.0523,-0.16204 -0.1,-0.32574 -0.16171,-0.48454 -0.0887,-0.28147 -0.22858,-0.541 -0.33159,-0.81717 -0.1218,-0.33369 -0.24999,-0.66926 -0.42402,-0.97946 -0.24825,-0.36571 -0.51818,-0.7154 -0.76528,-1.08179 -0.26865,-0.37312 -0.55462,-0.74012 -0.87562,-1.06954 0,0 1.07297,-0.65752 1.07297,-0.65752 z"
     inkscape:connector-curvature="0" />
  <path
     style="fill:#ffffff"
     id="path3170"
     d="m 313.85912,117.25432 c 0.24209,0.32711 0.48678,0.65223 0.73213,0.97693 0.27914,0.36795 0.56743,0.72885 0.84362,1.099 0.0797,0.1023 0.13463,0.22433 0.22548,0.31834 0.0802,0.083 0.18741,0.14672 0.28091,0.21315 0.23379,0.16906 0.48906,0.30728 0.74054,0.44812 0.35003,0.22123 0.64882,0.51997 0.93206,0.82033 0.23144,0.25152 0.41031,0.54389 0.60708,0.82178 0.11538,0.15347 0.0588,0.073 0.16892,0.24201 0,0 -1.0711,0.62725 -1.0711,0.62725 l 0,0 c -0.10989,-0.16288 -0.0539,-0.0832 -0.16774,-0.23923 -0.18938,-0.27516 -0.36422,-0.56212 -0.58748,-0.8121 -0.27723,-0.29144 -0.56525,-0.5851 -0.91797,-0.7848 -0.25734,-0.14243 -0.52108,-0.2779 -0.75712,-0.45438 -0.22245,-0.1613 -0.39365,-0.32032 -0.51974,-0.57037 -0.26325,-0.37702 -0.53768,-0.74618 -0.82011,-1.10909 -0.24932,-0.3228 -0.50382,-0.64253 -0.77092,-0.95059 0,0 1.08144,-0.64635 1.08144,-0.64635 z"
     inkscape:connector-curvature="0" />
  <path
     style="fill:#ffffff"
     id="path3172"
     d="m 311.3103,118.14879 c 0.36818,0.22435 0.78901,0.34827 1.20363,0.45479 0.27226,0.0489 0.54632,0.11804 0.82383,0.1328 0.21692,0.0115 0.43956,-0.0214 0.65478,-0.0435 0.32642,-0.0411 0.65436,-0.0691 0.98308,-0.0821 0.27618,-0.0153 0.55416,-0.001 0.8154,0.0935 0,0 -1.03283,0.70145 -1.03283,0.70145 l 0,0 c -0.25619,-0.0741 -0.52128,-0.0746 -0.78609,-0.0591 -0.32307,0.0156 -0.64514,0.0426 -0.96671,0.0774 -0.14097,0.0115 -0.29184,0.0266 -0.43336,0.0263 -0.35706,-9.3e-4 -0.70596,-0.0901 -1.05343,-0.1617 -0.43351,-0.11495 -0.86963,-0.24262 -1.26711,-0.45474 0,0 1.05881,-0.68507 1.05881,-0.68507 z"
     inkscape:connector-curvature="0" />
  <path
     style="fill:#ffffff"
     id="path3174"
     d="m 314.11788,119.04257 c 0.26534,0.0258 0.52766,0.0647 0.79065,0.10802 0.18442,0.0267 0.36746,0.0324 0.54816,0.0783 0.0251,0.0109 0.0501,0.0217 0.0752,0.0326 0,0 -1.04287,0.70283 -1.04287,0.70283 l 0,0 c -0.0222,-0.007 -0.0445,-0.0131 -0.0668,-0.0197 -0.1768,-0.0378 -0.35917,-0.0387 -0.53609,-0.0776 -0.26408,-0.0474 -0.52918,-0.0789 -0.79678,-0.0993 0,0 1.02847,-0.72516 1.02847,-0.72516 z"
     inkscape:connector-curvature="0" />
  <path
     style="fill:#ffffff"
     id="path3176"
     d="m 314.79421,119.31635 c 0.21151,0.0716 0.43333,0.0893 0.64247,0.16799 0.19621,0.0625 0.36631,0.17953 0.538,0.28917 0.072,0.0367 0.14137,0.0765 0.21466,0.11063 0,0 -1.04888,0.69092 -1.04888,0.69092 l 0,0 c -0.0753,-0.0391 -0.15043,-0.0785 -0.22229,-0.12376 -0.16165,-0.10823 -0.32913,-0.20857 -0.51657,-0.26597 -0.21368,-0.0657 -0.43699,-0.0926 -0.65009,-0.16153 0,0 1.0427,-0.70745 1.0427,-0.70745 z"
     inkscape:connector-curvature="0" />
  <path
     style="fill:#ffffff"
     id="path3178"
     d="m 314.87374,119.38284 c 0.22608,0.0259 0.44458,0.0828 0.66118,0.15049 0.16747,0.0888 0.36188,0.1049 0.51784,0.2131 0.0193,0.0131 0.0386,0.0262 0.0579,0.0393 0,0 -1.06068,0.67872 -1.06068,0.67872 l 0,0 c -0.0183,-0.0121 -0.0366,-0.0243 -0.055,-0.0364 -0.15482,-0.0832 -0.3342,-0.11522 -0.49323,-0.19066 -0.21533,-0.0665 -0.43554,-0.10849 -0.65994,-0.13059 0,0 1.03192,-0.724 1.03192,-0.724 z"
     inkscape:connector-curvature="0" />
  <path
     style="fill:#ffffff"
     id="path3180"
     d="m 314.3696,119.48619 c 0.22714,0.0758 0.46678,0.1033 0.70438,0.12241 0.21855,0.0219 0.43975,-0.003 0.65692,0.0295 0.15992,0.0231 0.32111,0.0644 0.46403,0.14119 0.14192,0.0826 0.27609,0.17568 0.41729,0.26192 0.23829,0.15744 0.47339,0.31847 0.71254,0.47463 0.16062,0.10867 0.0801,0.0549 0.24164,0.16127 0,0 -1.04615,0.67044 -1.04615,0.67044 l 0,0 c -0.16206,-0.10746 -0.0819,-0.0534 -0.2405,-0.16226 -0.23622,-0.15916 -0.47544,-0.3136 -0.71725,-0.46413 -0.14094,-0.0811 -0.27274,-0.17561 -0.41832,-0.24736 -0.14005,-0.0559 -0.28357,-0.0985 -0.43477,-0.11033 -0.21668,-0.0144 -0.43471,-0.007 -0.65094,-0.0314 -0.24709,-0.0262 -0.49314,-0.0669 -0.73157,-0.13842 0,0 1.0427,-0.70746 1.0427,-0.70746 z"
     inkscape:connector-curvature="0" />
  <path
     style="fill:#000000"
     id="path3184"
     d="m 155.52646,148.21944 c 0.23883,0.22198 0.52317,0.38554 0.79988,0.55466 0.26302,0.14758 0.52525,0.29715 0.77059,0.47296 0.17256,0.13131 0.34419,0.26432 0.4978,0.41768 0.19141,0.17675 0.32089,0.39385 0.4286,0.62803 0.0992,0.24003 0.15434,0.49463 0.2228,0.74437 0.0686,0.23395 0.17234,0.45192 0.30838,0.65349 0.15106,0.20757 0.31583,0.40434 0.47084,0.60881 0,0 -0.75025,0.4459 -0.75025,0.4459 l 0,0 c -0.15665,-0.20552 -0.322,-0.4042 -0.47539,-0.61228 -0.13934,-0.21026 -0.24921,-0.43536 -0.32055,-0.67822 -0.0708,-0.24472 -0.11935,-0.49632 -0.21369,-0.73369 -0.10921,-0.23586 -0.22691,-0.41889 -0.41854,-0.59735 -0.15277,-0.14823 -0.32153,-0.27714 -0.48977,-0.40718 -0.2397,-0.17604 -0.49503,-0.32915 -0.75372,-0.47552 -0.28387,-0.17264 -0.56669,-0.34781 -0.83047,-0.55047 0,0 0.75349,-0.47119 0.75349,-0.47119 z"
     inkscape:connector-curvature="0" />
  <path
     style="fill:#000000"
     id="path3190"
     d="m 156.71491,148.65179 c 0.11762,0.26855 0.29028,0.50793 0.44828,0.75353 0.18115,0.23961 0.35346,0.48982 0.56029,0.70844 0.14814,0.1457 0.31281,0.27462 0.48901,0.38453 0.18362,0.10412 0.3174,0.26837 0.43752,0.438 0.11492,0.1727 0.2121,0.35465 0.30534,0.53956 0.0844,0.13517 0.13836,0.28621 0.21525,0.42509 0.009,0.0175 0.0189,0.0349 0.0283,0.0524 0,0 -0.77071,0.4411 -0.77071,0.4411 l 0,0 c -0.009,-0.0175 -0.018,-0.0349 -0.027,-0.0524 -0.0741,-0.14163 -0.12724,-0.29371 -0.21003,-0.43113 -0.0897,-0.18142 -0.1866,-0.35815 -0.29614,-0.52863 -0.11705,-0.16023 -0.24669,-0.31045 -0.423,-0.40785 -0.17901,-0.11701 -0.34605,-0.25407 -0.49566,-0.4069 -0.2047,-0.22661 -0.37346,-0.48477 -0.55782,-0.72761 -0.15827,-0.24713 -0.33037,-0.4855 -0.47514,-0.74097 0,0 0.77152,-0.44717 0.77152,-0.44717 z"
     inkscape:connector-curvature="0" />
  <path
     style="fill:#000000"
     id="path3208"
     d="m 157.74535,151.16967 c -0.19821,-0.28089 -0.42322,-0.54104 -0.63493,-0.81152 -0.23395,-0.30541 -0.44185,-0.62914 -0.67116,-0.9379 -0.19289,-0.2866 -0.40961,-0.5562 -0.60609,-0.8401 -0.17043,-0.25876 -0.33136,-0.5239 -0.48447,-0.79326 -0.0645,-0.13836 -0.0357,-0.07 -0.0871,-0.20489 0,0 0.76874,-0.42586 0.76874,-0.42586 l 0,0 c 0.0438,0.12874 0.0187,0.0634 0.0761,0.19555 0.14317,0.27156 0.30164,0.53485 0.47379,0.78907 0.19529,0.28336 0.40735,0.55493 0.59739,0.84207 0.22722,0.30935 0.44106,0.62826 0.67226,0.93475 0.21099,0.27307 0.43442,0.53656 0.65683,0.80027 0,0 -0.76134,0.45182 -0.76134,0.45182 z"
     inkscape:connector-curvature="0" />
  <path
     style="fill:#000000"
     id="path3210"
     d="m 158.87025,152.03644 c 0.0289,0.16917 0.0827,0.33026 0.15539,0.48511 0.0678,0.1425 0.15984,0.27109 0.23314,0.41035 0.043,0.0811 0.0888,0.1607 0.13504,0.24 0,0 -0.76691,0.44332 -0.76691,0.44332 l 0,0 c -0.0472,-0.0805 -0.0935,-0.16172 -0.13724,-0.24414 -0.0713,-0.14159 -0.16484,-0.27103 -0.23093,-0.41571 -0.0748,-0.16197 -0.13057,-0.32856 -0.1759,-0.5012 0,0 0.78741,-0.41773 0.78741,-0.41773 z"
     inkscape:connector-curvature="0" />
  <path
     style="fill:#000000"
     id="path3212"
     d="m 159.28687,152.22309 c -0.003,0.0939 -0.002,0.0452 -0.003,0.14603 0,0 -0.78771,0.40135 -0.78771,0.40135 l 0,0 c -0.001,-0.099 -1.6e-4,-0.0514 -0.003,-0.14266 0,0 0.79432,-0.40472 0.79432,-0.40472 z"
     inkscape:connector-curvature="0" />
  <path
     style="fill:#000000"
     id="path3214"
     d="m 159.22286,152.16965 c -0.042,0.17468 -0.0402,0.35202 -0.028,0.52978 0.0161,0.0934 0.007,0.048 0.0274,0.13653 0,0 -0.78013,0.41976 -0.78013,0.41976 l 0,0 c -0.0216,-0.0967 -0.0115,-0.0464 -0.0299,-0.151 -0.0116,-0.1816 -0.0192,-0.36291 0.01,-0.54357 0,0 0.80077,-0.3915 0.80077,-0.3915 z"
     inkscape:connector-curvature="0" />
  <path
     style="fill:#000000"
     id="path3216"
     d="m 159.11045,151.97639 c 0.0291,0.19583 0.0602,0.39128 0.0851,0.58779 0.022,0.12687 0.0503,0.25238 0.0692,0.37978 0,0 -0.78441,0.41309 -0.78441,0.41309 l 0,0 c -0.0157,-0.12931 -0.0411,-0.25687 -0.0633,-0.3852 -0.0191,-0.19472 -0.0494,-0.38722 -0.0941,-0.57773 0,0 0.78741,-0.41773 0.78741,-0.41773 z"
     inkscape:connector-curvature="0" />
  <path
     style="fill:#000000"
     id="path3220"
     d="m 156.32214,149.64856 c 0.23638,0.2471 0.47106,0.49535 0.70124,0.74828 0.21314,0.23173 0.39505,0.48839 0.57757,0.74406 0.17798,0.26776 0.33345,0.54931 0.50552,0.82093 0.2065,0.3058 0.3804,0.62846 0.51387,0.97221 0.10319,0.27881 0.17356,0.56839 0.24209,0.85726 0.0329,0.14058 0.0175,0.0726 0.0463,0.2039 0,0 -0.5433,0.29053 -0.5433,0.29053 l 0,0 c -0.0241,-0.13214 -0.0109,-0.0637 -0.0401,-0.2052 -0.065,-0.28778 -0.12624,-0.57741 -0.22965,-0.85456 -0.048,-0.12751 -0.0702,-0.19417 -0.12887,-0.31821 -0.10656,-0.22535 -0.24295,-0.43521 -0.37727,-0.64455 -0.17237,-0.2703 -0.3339,-0.54728 -0.51199,-0.81381 -0.17778,-0.25567 -0.3558,-0.51196 -0.56569,-0.74297 -0.22654,-0.25712 -0.46336,-0.50463 -0.71834,-0.73394 0,0 0.5286,-0.32393 0.5286,-0.32393 z"
     inkscape:connector-curvature="0" />
  <path
     style="fill:#000000"
     id="path3222"
     d="m 157.39807,152.32495 c 0.0144,0.0135 0.03,0.0258 0.0432,0.0404 0.0876,0.0971 0.16786,0.20067 0.25251,0.30039 0.17542,0.20664 0.35369,0.41092 0.53177,0.61525 0.16303,0.19926 0.33979,0.39536 0.46141,0.62446 0.051,0.0961 0.0584,0.13103 0.092,0.23108 0,0 -0.53684,0.29453 -0.53684,0.29453 l 0,0 c -0.0291,-0.0989 -0.0334,-0.12709 -0.0796,-0.22308 -0.11076,-0.22994 -0.27572,-0.42933 -0.43337,-0.62768 -0.27355,-0.31848 -0.53925,-0.65275 -0.86452,-0.92032 0,0 0.53344,-0.33506 0.53344,-0.33506 z"
     inkscape:connector-curvature="0" />
  <path
     style="fill:#000000"
     id="path3224"
     d="m 157.97094,152.49042 c 0.1222,0.29012 0.27704,0.56483 0.43103,0.83885 0,0 -0.50256,0.28909 -0.50256,0.28909 l 0,0 c -0.15181,-0.27553 -0.3087,-0.54795 -0.46302,-0.82192 0,0 0.53455,-0.30602 0.53455,-0.30602 z"
     inkscape:connector-curvature="0" />
  <path
     style="fill:#000000"
     id="path3226"
     d="m 156.1134,149.30142 c 0.20993,0.19827 0.42542,0.39228 0.6201,0.60582 0.1662,0.2015 0.32309,0.41353 0.44242,0.6464 0.0884,0.1486 0.1505,0.31029 0.22688,0.46487 0.0439,0.0888 0.0907,0.17618 0.13501,0.26482 0.12418,0.25958 0.27368,0.50557 0.40334,0.76227 0.14054,0.26267 0.28347,0.52323 0.40384,0.7959 0.1011,0.25113 0.2025,0.50193 0.29521,0.75632 0.0133,0.0368 0.0267,0.0737 0.04,0.11056 0,0 -0.53491,0.29652 -0.53491,0.29652 l 0,0 c -0.0136,-0.037 -0.0272,-0.0741 -0.0407,-0.11112 -0.0853,-0.25567 -0.18757,-0.50472 -0.28829,-0.7546 -0.11998,-0.27168 -0.25499,-0.53502 -0.40272,-0.79282 -0.13036,-0.25646 -0.27568,-0.50482 -0.40111,-0.76378 -0.12239,-0.24221 -0.24174,-0.48597 -0.36854,-0.72588 -0.11336,-0.22996 -0.26591,-0.43815 -0.42987,-0.63464 -0.19227,-0.21329 -0.40018,-0.41465 -0.62625,-0.59197 0,0 0.52558,-0.32867 0.52558,-0.32867 z"
     inkscape:connector-curvature="0" />
  <path
     style="fill:#000000"
     id="path3228"
     d="m 155.64554,149.20304 c 0.009,0.009 0.0175,0.0188 0.0268,0.0277 0.0618,0.0592 0.1285,0.11243 0.19556,0.16542 0.0412,0.0326 0.0827,0.0649 0.12408,0.0974 0.0488,0.0399 0.0961,0.0814 0.14167,0.12491 0,0 -0.0441,0.027 -0.0441,0.027 l 0,0 c -0.0422,-0.0455 -0.0867,-0.0887 -0.13397,-0.12907 -0.0498,-0.0418 -0.0681,-0.0575 -0.12034,-0.0997 -0.0779,-0.0628 -0.15775,-0.12321 -0.23738,-0.18385 0,0 0.0477,-0.0298 0.0477,-0.0298 z"
     inkscape:connector-curvature="0" />
  <path
     style="fill:#000000"
     id="path3230"
     d="m 155.88279,149.33926 c 0.0286,0.0558 0.0696,0.10375 0.10853,0.15246 0.0164,0.0199 0.0316,0.0408 0.0453,0.0626 0,0 -0.0482,0.0279 -0.0482,0.0279 l 0,0 c -0.0123,-0.0224 -0.0264,-0.0435 -0.042,-0.0638 -0.0199,-0.0265 -0.0403,-0.0526 -0.0604,-0.079 -0.0332,-0.0436 -0.01,-0.0135 -0.0393,-0.0537 -0.005,-0.006 -0.009,-0.0123 -0.0139,-0.0185 0,0 0.05,-0.028 0.05,-0.028 z"
     inkscape:connector-curvature="0" />
  <path
     style="fill:#ffffff"
     id="path3232"
     d="m 312.96219,119.08104 c 0.27144,0.0613 0.54378,0.11839 0.81427,0.18378 0.12052,0.0312 0.24034,0.0682 0.35308,0.12169 0.0916,0.0435 0.17819,0.0989 0.26657,0.14837 0.17223,0.0863 0.34606,0.16916 0.51474,0.26239 0.0568,0.0302 0.11352,0.0604 0.1709,0.0895 0,0 -0.18676,0.12215 -0.18676,0.12215 l 0,0 c -0.0552,-0.0311 -0.10992,-0.0629 -0.16525,-0.0937 -0.0792,-0.0448 -0.15886,-0.0882 -0.24012,-0.12921 -0.33942,-0.17118 0.17256,0.0885 -0.18353,-0.0893 -0.0296,-0.0148 -0.0587,-0.0306 -0.088,-0.0458 -0.0875,-0.0484 -0.17444,-0.10405 -0.26397,-0.14757 -0.10984,-0.0534 -0.22598,-0.092 -0.34364,-0.12401 -0.27556,-0.0711 -0.55385,-0.13256 -0.83654,-0.16791 0,0 0.18829,-0.13038 0.18829,-0.13038 z"
     inkscape:connector-curvature="0" />
  <path
     style="fill:#ffffff"
     id="path3234"
     d="m 313.8434,120.17472 c 0.0249,0.002 0.0491,0.008 0.0735,0.0133 0.0422,0.008 0.0843,0.0161 0.12619,0.0253 0.0457,0.0101 0.091,0.0222 0.13638,0.0339 0.0361,0.009 0.0727,0.0155 0.1094,0.0211 0.0378,0.005 0.0747,0.015 0.11196,0.0232 0.006,0.001 0.0126,0.002 0.0189,0.003 0,0 -0.0645,0.0451 -0.0645,0.0451 l 0,0 c -0.006,-0.001 -0.0127,-0.002 -0.019,-0.004 -0.0372,-0.008 -0.0741,-0.0176 -0.11199,-0.0226 -0.0366,-0.006 -0.0731,-0.0129 -0.10898,-0.0224 -0.0452,-0.0117 -0.0903,-0.0238 -0.13586,-0.0339 -0.0423,-0.009 -0.085,-0.0168 -0.12769,-0.0241 -0.0246,-0.005 -0.0493,-0.0109 -0.0746,-0.0105 0,0 0.0663,-0.0482 0.0663,-0.0482 z"
     inkscape:connector-curvature="0" />
  <path
     style="fill:#ffffff"
     id="path3236"
     d="m 313.91119,120.27532 c 0.0283,0.004 0.057,0.003 0.0854,0.005 0.0322,0.001 0.0639,0.006 0.0956,0.0118 0.0349,0.007 0.07,0.0133 0.10527,0.0184 0.0414,0.005 0.0818,0.015 0.12239,0.0239 0.0364,0.008 0.0722,0.0175 0.1085,0.0255 0.0345,0.007 0.0692,0.0134 0.10386,0.0202 0.0402,0.01 0.0806,0.0184 0.12086,0.0281 0.0369,0.006 0.0725,0.0177 0.10773,0.0302 0.0326,0.0126 0.0657,0.0238 0.0988,0.0349 0.034,0.0107 0.0668,0.0251 0.10043,0.0367 0.0342,0.0104 0.0666,0.0251 0.0993,0.0394 0.0306,0.0118 0.0593,0.0279 0.0887,0.0424 0.0276,0.0143 0.0539,0.0311 0.0816,0.0451 0.0268,0.0137 0.054,0.0269 0.081,0.0402 0.0246,0.013 0.0491,0.0264 0.0735,0.0397 0.0183,0.01 0.0356,0.021 0.0531,0.0319 0.0204,0.013 0.0403,0.0267 0.0611,0.0391 0.021,0.0135 0.0427,0.0256 0.0652,0.0362 0.0193,0.01 0.0385,0.0198 0.0565,0.032 0.009,0.006 0.0183,0.0108 0.026,0.018 0.004,0.003 0.007,0.007 0.0102,0.0112 0.0106,0.0103 0.0238,0.0176 0.0353,0.0269 0.0127,0.011 0.0271,0.0197 0.0407,0.0296 0.0157,0.0139 0.0336,0.0249 0.0503,0.0374 0.0133,0.0119 0.0281,0.022 0.0425,0.0324 0.0137,0.0102 0.0276,0.0198 0.0437,0.0259 0,0 -0.0675,0.0451 -0.0675,0.0451 l 0,0 c -0.016,-0.007 -0.0304,-0.0173 -0.0446,-0.0276 -0.0144,-0.0105 -0.0288,-0.0209 -0.0422,-0.0327 -0.0169,-0.0122 -0.0341,-0.0241 -0.0504,-0.0372 -0.0139,-0.01 -0.0284,-0.0186 -0.0412,-0.0297 -0.012,-0.009 -0.0255,-0.0168 -0.0361,-0.0279 -0.0101,-0.0112 -0.0218,-0.02 -0.0347,-0.0278 -0.0176,-0.0118 -0.0364,-0.0217 -0.0554,-0.0313 -0.0226,-0.011 -0.0444,-0.0235 -0.0657,-0.0369 -0.0207,-0.0126 -0.0407,-0.0265 -0.0614,-0.0391 -0.0174,-0.0108 -0.0348,-0.0216 -0.0525,-0.0318 -0.0241,-0.0136 -0.0485,-0.0269 -0.0731,-0.0395 -0.0269,-0.0135 -0.0538,-0.027 -0.0808,-0.0404 -0.0276,-0.0142 -0.0536,-0.0313 -0.0815,-0.0452 -0.0292,-0.0147 -0.0578,-0.0304 -0.0883,-0.0423 -0.0323,-0.0147 -0.0648,-0.0287 -0.0989,-0.0389 -0.0334,-0.0121 -0.0661,-0.0264 -0.10017,-0.0367 -0.0331,-0.0113 -0.0663,-0.0222 -0.0989,-0.035 -0.0349,-0.0123 -0.0702,-0.0228 -0.10655,-0.03 -0.0403,-0.009 -0.0808,-0.0182 -0.12113,-0.0275 -0.0348,-0.007 -0.0699,-0.0121 -0.10453,-0.02 -0.0359,-0.009 -0.0715,-0.0184 -0.10766,-0.0261 -0.0405,-0.009 -0.081,-0.0183 -0.12229,-0.0232 -0.0355,-0.005 -0.0707,-0.0114 -0.10584,-0.0183 -0.0316,-0.005 -0.0632,-0.01 -0.0952,-0.011 -0.0292,-0.002 -0.0584,-0.002 -0.0876,-0.004 0,0 0.0667,-0.0472 0.0667,-0.0472 z"
     inkscape:connector-curvature="0" />
  <path
     style="fill:#ffffff"
     id="path3264"
     d="m 313.91728,120.27532 c 0.0251,0.002 0.0501,0.006 0.0753,0.008 0.0192,0.002 0.0385,0.002 0.0578,0.002 0.0156,3.3e-4 0.0312,-6.9e-4 0.0467,0.001 0.0163,0.001 0.0323,0.004 0.0481,0.008 0.0223,0.007 0.0454,0.0116 0.0686,0.0148 0.03,0.005 0.0603,0.007 0.0902,0.0125 0.0242,0.006 0.0488,0.0102 0.0737,0.0124 0.009,4.5e-4 0.0172,7.8e-4 0.0258,0.002 0,0 -0.0664,0.0469 -0.0664,0.0469 l 0,0 c -0.008,-9.8e-4 -0.0167,-0.001 -0.025,-0.002 -0.0248,-0.003 -0.0492,-0.008 -0.0736,-0.0132 -0.0298,-0.005 -0.0599,-0.008 -0.0899,-0.0124 -0.0236,-0.003 -0.047,-0.008 -0.07,-0.0147 -0.0157,-0.003 -0.0315,-0.006 -0.0475,-0.007 -0.0155,-6.7e-4 -0.0311,-1.2e-4 -0.0466,-4.8e-4 -0.0191,-5.1e-4 -0.0382,-0.001 -0.0572,-0.003 -0.0255,-0.003 -0.051,-0.006 -0.0767,-0.007 0,0 0.0665,-0.0472 0.0665,-0.0472 z"
     inkscape:connector-curvature="0" />
  <path
     style="fill:#ffffff"
     id="path3266"
     d="m 315.91205,121.1678 c -0.0168,-0.0148 -0.0345,-0.0286 -0.0524,-0.0421 -0.0206,-0.015 -0.0407,-0.0306 -0.0619,-0.0446 -0.0169,-0.009 -0.0319,-0.0207 -0.0481,-0.0308 -0.0118,-0.008 -0.0254,-0.0132 -0.0386,-0.0186 -0.0147,-0.006 -0.0297,-0.0123 -0.0447,-0.0181 -0.0129,-0.004 -0.0252,-0.009 -0.0358,-0.017 -0.009,-0.007 -0.0173,-0.0137 -0.0258,-0.0206 -0.009,-0.008 -0.0148,-0.0179 -0.023,-0.0262 -0.0108,-0.01 -0.0176,-0.0231 -0.0287,-0.0327 -0.0109,-0.0102 -0.0221,-0.0201 -0.0338,-0.0292 -0.0174,-0.0114 -0.0345,-0.0232 -0.0513,-0.0354 -0.0282,-0.0193 -0.0557,-0.0396 -0.0833,-0.0597 -0.0376,-0.0264 -0.0755,-0.0524 -0.11338,-0.0783 -0.0315,-0.0186 -0.0608,-0.0404 -0.0917,-0.0598 -0.0235,-0.0147 -0.0296,-0.0177 -0.0538,-0.0311 -0.0325,-0.0174 -0.064,-0.037 -0.0972,-0.0531 -0.0229,-0.0111 -0.0292,-0.0129 -0.0532,-0.0221 -0.0685,-0.0247 -0.13844,-0.0452 -0.20862,-0.0647 -0.11125,-0.0295 -0.22358,-0.0547 -0.33661,-0.0763 -0.0599,-0.0116 -0.12034,-0.0204 -0.18004,-0.033 -0.0256,-0.005 -0.0537,-0.0126 -0.0792,-0.0188 -0.0672,-0.0161 -0.13381,-0.0345 -0.20061,-0.0521 -0.0722,-0.0178 -0.14474,-0.0336 -0.21688,-0.0515 -0.0421,-0.009 -0.0833,-0.0209 -0.12486,-0.032 -0.006,-0.001 -0.013,-0.003 -0.0195,-0.004 0,0 0.0646,-0.0447 0.0646,-0.0447 l 0,0 c 0.007,0.002 0.0131,0.003 0.0196,0.005 0.0411,0.0111 0.0821,0.0226 0.12335,0.0329 0.0711,0.0191 0.14278,0.0359 0.21435,0.0532 0.0675,0.0156 0.13439,0.0336 0.20129,0.0517 0.0309,0.008 0.0466,0.0123 0.0782,0.019 0.0591,0.0126 0.11897,0.0217 0.17809,0.0344 0.0183,0.004 0.0926,0.0186 0.10958,0.0224 0.0761,0.0168 0.15167,0.0362 0.22749,0.0542 0.0718,0.0182 0.14402,0.0355 0.21321,0.0625 0.0216,0.008 0.0337,0.0124 0.0544,0.0224 0.0331,0.016 0.0639,0.0366 0.0963,0.0539 0.0119,0.007 0.0432,0.0242 0.0547,0.0312 0.0312,0.019 0.0603,0.0415 0.0919,0.0598 0.0385,0.0255 0.0771,0.0508 0.11459,0.0778 0.0281,0.0199 0.0563,0.0396 0.0849,0.0587 0.0172,0.0122 0.035,0.0234 0.0524,0.0352 0.0119,0.009 0.0231,0.0195 0.0342,0.0297 0.0107,0.0102 0.0183,0.0228 0.029,0.033 0.008,0.008 0.0144,0.0176 0.023,0.0252 0.009,0.007 0.0165,0.0142 0.0254,0.0205 0.0104,0.007 0.0225,0.011 0.0343,0.0154 0.0149,0.006 0.03,0.0118 0.0449,0.0181 0.0137,0.005 0.0272,0.0114 0.0392,0.02 0.0159,0.0105 0.0312,0.0218 0.0478,0.0313 0.0208,0.0147 0.0412,0.0299 0.0615,0.0453 0.0183,0.0139 0.0367,0.0278 0.0549,0.0418 0,0 -0.07,0.0429 -0.07,0.0429 z"
     inkscape:connector-curvature="0" />
  <path
     style="fill:#ffffff"
     id="path3268"
     d="m 313.03078,119.64509 c 0.0823,0.0383 0.1691,0.0658 0.25528,0.0939 0.076,0.0238 0.15259,0.0457 0.22796,0.0716 0.0332,0.0128 0.0677,0.0222 0.10062,0.0358 0.009,0.004 0.0175,0.007 0.025,0.012 0.004,0.003 0.0117,0.008 0.008,0.0113 -0.0451,0.0359 -0.0956,0.0642 -0.14346,0.0964 -0.0207,-0.003 -0.0461,-0.007 -0.0657,-0.0126 -0.10403,-0.0291 -0.20458,-0.0709 -0.30503,-0.11017 -0.0414,-0.0167 -0.06,-0.0263 -0.10087,-0.0361 -0.009,-0.002 -0.0345,0.001 -0.027,-0.004 0.14343,-0.0984 0.10835,-0.10246 0.15967,-0.0363 0.0565,0.0597 0.12581,0.10551 0.19557,0.14816 0.054,0.0326 0.11486,0.0499 0.17303,0.0731 0.0458,0.0194 0.0908,0.0404 0.13802,0.0563 0.0455,0.0168 0.0932,0.026 0.13952,0.04 0.0262,0.007 0.056,0.0103 0.0715,0.0353 0.002,0.014 0.005,0.023 0.0152,0.0331 0.0211,0.0181 0.0476,0.0252 0.073,0.0345 0.0262,0.0123 0.0316,0.0366 0.0211,0.062 -0.0818,0.0982 -0.13319,0.1134 -0.20836,0.0642 -0.0268,-0.0135 -0.0509,-0.0314 -0.0733,-0.0512 -0.0213,-0.0186 -0.0446,-0.0354 -0.0698,-0.0483 -0.0415,-0.019 -0.0879,-0.0231 -0.13294,-0.0266 -0.0164,-0.002 -0.0306,8.3e-4 -0.0385,-0.0186 -0.0156,-0.0383 0.0183,-0.0687 0.0417,-0.0951 0.0308,-0.0348 0.0653,-0.0662 0.0992,-0.098 0.0412,-0.0387 0.084,-0.0757 0.12596,-0.11353 0.0822,-0.0757 0.16922,-0.14611 0.25204,-0.22116 0.008,-0.007 0.12125,-0.0882 0.10755,-0.13951 -0.007,-0.0278 -0.1065,-0.0367 -0.11069,-0.0375 -0.0354,-0.003 -0.11169,-0.006 -0.14885,-0.0157 -0.0141,-0.004 -0.0299,-0.008 -0.0398,-0.0183 -0.0265,-0.0287 0.004,-0.072 0.0176,-0.0972 -0.002,-0.002 -0.002,-0.006 -0.005,-0.006 -0.009,0.002 -0.017,0.007 -0.0256,0.0111 -0.0834,0.0356 -0.0479,0.0185 -0.14106,0.065 -0.0269,0.0134 -0.10513,0.0584 -0.0806,0.0409 0.0281,-0.0199 0.0608,-0.0323 0.0913,-0.0485 4.5e-4,9e-4 3.5e-4,0.003 0.001,0.003 0.0178,-0.004 0.0352,-0.01 0.0528,-0.015 0.0283,-0.006 0.0567,-0.0109 0.0849,-0.017 0.0244,-0.005 0.0482,-0.0129 0.0728,-0.0169 0.009,-0.002 0.0288,-0.009 0.0277,3.2e-4 -0.002,0.018 -0.0218,0.029 -0.0328,0.0435 0.45066,-0.25786 -0.3452,0.19845 -0.26354,0.14129 0.0336,-0.0236 0.11378,-0.0767 0.17066,-0.0937 0.007,-0.002 0.10981,-0.0275 0.12387,-0.031 0.002,0.01 0.0114,0.0213 0.005,0.0289 -0.0192,0.0233 -0.14634,0.0973 -0.16432,0.10772 -0.0669,0.0389 -0.13414,0.0773 -0.20161,0.11528 -0.012,0.007 -0.0481,0.0265 -0.0367,0.0188 0.0634,-0.043 0.12874,-0.0832 0.19311,-0.12473 0.16447,-0.0615 0.33021,-0.12042 0.49075,-0.19183 0.0212,-0.009 0.0811,-0.0447 0.0618,-0.0319 -0.17571,0.1158 -0.12026,0.0917 -0.26826,0.13012 -0.032,0.008 -0.0639,0.0168 -0.0959,0.0248 -0.10542,0.0262 -0.0623,0.0108 0.10999,-0.0981 0.0122,-0.008 0.0524,-0.023 0.0403,-0.0152 -0.0378,0.0248 -0.0788,0.0443 -0.11836,0.0663 -0.0192,0.0107 -0.0385,0.0211 -0.0578,0.0317 -0.16745,0.0474 -0.13155,0.0357 -0.30769,0.0928 -0.0369,0.012 -0.1272,0.0717 -0.11019,0.0369 0.0384,-0.0786 0.25762,-0.10552 0.33077,-0.11846 0.0185,0.0551 0.0992,-0.0464 0.13557,-0.0188 0.0273,0.0207 -0.037,0.0528 -0.0476,0.0594 -9.4e-4,2.3e-4 -0.002,4.6e-4 -0.003,6.9e-4 0,0 -0.15225,0.0633 -0.15225,0.0633 l 0,0 c 9e-4,-0.002 0.002,-0.003 0.003,-0.005 0.0109,-0.007 0.0392,-0.0254 0.0494,-0.0278 0.007,-0.002 0.0253,0.008 0.0211,0.002 -0.0235,-0.031 -0.13507,0.0692 -0.11624,0.01 -0.0432,0.009 -0.0861,0.0195 -0.12967,0.0261 -0.0352,0.005 -0.11581,0.0438 -0.10633,0.01 0.0192,-0.0695 0.16938,-0.0979 0.22691,-0.11582 0.10887,-0.0338 0.21636,-0.072 0.32558,-0.10476 0.0297,2.6e-4 0.10667,-0.0231 0.089,7.6e-4 -0.0354,0.0477 -0.10248,0.0602 -0.15491,0.0881 -0.0134,0.007 -0.0516,0.0289 -0.0423,0.0169 0.0262,-0.0333 0.0602,-0.0605 0.0953,-0.0844 0.0365,-0.0248 0.10935,0.0496 0.12931,-0.028 0.0347,-0.0102 0.0842,-0.0607 0.10397,-0.0305 0.0341,0.0522 -0.0851,0.0889 -0.11335,0.10015 -0.16882,0.0672 -0.33777,0.13415 -0.50572,0.20352 0.0158,-0.022 0.0288,-0.0464 0.0475,-0.066 0.007,-0.007 0.0347,-0.0187 0.0272,-0.0123 -0.0136,0.0117 -0.0614,0.0375 -0.0459,0.0284 0.0295,-0.0175 0.0587,-0.0354 0.0879,-0.0533 0.0209,-0.0128 0.0406,-0.0277 0.0625,-0.0387 0.006,-0.003 0.0132,-0.002 0.0198,-0.003 -0.0172,0.004 -0.0344,0.007 -0.0514,0.0114 -0.0249,0.006 -0.049,0.0157 -0.0743,0.0198 -0.0183,0.003 -0.0669,0.016 -0.0557,0.001 0.0319,-0.042 0.0827,-0.0657 0.12677,-0.0947 0.02,-0.0132 0.0618,-0.0553 0.0646,-0.0315 0.003,0.0249 -0.0424,0.0268 -0.0636,0.0402 0.0156,-0.002 0.0318,-0.002 0.0469,-0.006 0.005,-0.002 -0.0107,-0.004 -0.0161,-0.003 -0.0237,0.003 -0.0468,0.01 -0.0702,0.0147 -0.0399,0.008 -0.12017,0.0321 -0.16504,0.0195 -0.007,-0.002 -0.001,-0.0147 -0.002,-0.022 0.16899,-0.10028 0.12143,-0.0772 0.2486,-0.14036 0.028,-0.0139 0.0556,-0.0284 0.0841,-0.0411 0.0234,-0.0104 0.0762,-0.0412 0.10965,-0.024 0.007,0.004 0.006,0.0142 0.009,0.0214 -0.007,0.0121 -0.0437,0.0604 -0.0318,0.0755 0.008,0.01 0.0208,0.014 0.0326,0.0175 0.0399,0.0119 0.10873,0.0146 0.14714,0.0175 0.0254,0.005 0.11757,0.01 0.12607,0.0588 0.01,0.0563 -0.10826,0.14058 -0.12353,0.15411 -0.084,0.0744 -0.17154,0.1446 -0.25339,0.22138 -0.0807,0.0743 -0.13631,0.12135 -0.20763,0.20099 -0.001,0.001 -0.0485,0.0457 -0.0419,0.0697 0.003,0.0112 0.0267,0.01 0.0313,0.0106 0.047,0.004 0.0951,0.0106 0.13816,0.0309 0.0258,0.0144 0.0503,0.0314 0.0725,0.0511 0.0219,0.0191 0.0453,0.0361 0.0714,0.0491 0.0111,0.006 0.0227,0.0137 0.0359,0.0146 0.003,2.1e-4 0.0125,-0.003 0.01,-0.001 -0.12019,0.0747 -0.18289,0.0916 -0.1243,0.0751 0.0192,-0.0126 0.0142,-0.0279 -0.005,-0.0357 -0.0276,-0.01 -0.0553,-0.0206 -0.0779,-0.04 -0.008,-0.008 -0.0241,-0.0239 -0.0175,-0.0362 -0.0111,-0.0199 -0.0447,-0.0176 -0.0628,-0.0266 -0.0462,-0.0137 -0.0931,-0.0251 -0.13843,-0.0414 -0.0476,-0.016 -0.0928,-0.0376 -0.13916,-0.0567 -0.0581,-0.0238 -0.11797,-0.0438 -0.1716,-0.0773 -0.0708,-0.0446 -0.14062,-0.0923 -0.2001,-0.15145 -0.007,-0.008 -0.0145,-0.0156 -0.0208,-0.0241 -0.006,-0.008 -0.0242,-0.019 -0.0165,-0.0257 0.0426,-0.0371 0.0944,-0.0631 0.14565,-0.0869 0.008,-0.004 0.0169,0.005 0.0251,0.008 0.0333,0.012 0.0625,0.0261 0.0951,0.0409 0.0774,0.032 0.15462,0.0643 0.2356,0.0863 0.0237,0.006 0.0831,0.0209 0.11457,0.0209 0.008,2e-5 0.0161,-0.003 0.0241,-0.004 -0.0422,0.029 -0.0839,0.0588 -0.12663,0.087 -0.001,7.4e-4 0.002,-0.003 0.001,-0.004 -0.007,-0.005 -0.0149,-0.008 -0.0227,-0.0115 -0.0326,-0.0139 -0.0671,-0.0229 -0.10016,-0.0356 -0.0749,-0.0251 -0.15032,-0.0484 -0.22529,-0.0732 -0.0877,-0.0293 -0.17517,-0.0594 -0.26229,-0.0904 0,0 0.13514,-0.0905 0.13514,-0.0905 z"
     inkscape:connector-curvature="0" />
  <path
     style="fill:#ffffff"
     id="path3280"
     d="m 314.4889,120.33828 c 0.0173,0.01 0.0355,0.0172 0.054,0.0242 0.0205,0.008 0.0425,0.0101 0.0643,0.0112 0.0177,3e-4 0.0354,2e-4 0.053,0.003 0.0141,0.002 0.0281,0.004 0.0424,0.003 0.011,-0.001 0.022,8.4e-4 0.0326,0.004 0.0145,0.004 0.0279,0.0106 0.0411,0.0173 0.0106,0.004 0.0209,0.009 0.0307,0.0145 0.005,0.003 0.002,0.002 0.007,0.005 0,0 -0.0487,0.0309 -0.0487,0.0309 l 0,0 c -0.005,-0.003 -0.002,-0.002 -0.007,-0.005 -0.01,-0.006 -0.0199,-0.01 -0.03,-0.0146 -0.0129,-0.007 -0.0262,-0.013 -0.0406,-0.016 -0.0104,-0.002 -0.0209,-0.004 -0.0316,-0.002 -0.0144,2.3e-4 -0.0285,-0.002 -0.0427,-0.004 -0.0173,-0.002 -0.0346,-0.002 -0.052,-0.003 -0.0223,-0.001 -0.0446,-0.004 -0.0653,-0.0126 -0.019,-0.007 -0.0378,-0.015 -0.0559,-0.0242 0,0 0.0485,-0.0312 0.0485,-0.0312 z"
     inkscape:connector-curvature="0" />
</svg>
