<?xml version="1.0" encoding="UTF-8" standalone="no"?>
<!-- Created with Inkscape (http://www.inkscape.org/) -->

<svg
   xmlns:dc="http://purl.org/dc/elements/1.1/"
   xmlns:cc="http://creativecommons.org/ns#"
   xmlns:rdf="http://www.w3.org/1999/02/22-rdf-syntax-ns#"
   xmlns:svg="http://www.w3.org/2000/svg"
   xmlns="http://www.w3.org/2000/svg"
   xmlns:sodipodi="http://sodipodi.sourceforge.net/DTD/sodipodi-0.dtd"
   xmlns:inkscape="http://www.inkscape.org/namespaces/inkscape"
   id="svg3086"
   version="1.1"
   inkscape:version="0.48.3.1 r9886"
   width="343"
   height="223"
   sodipodi:docname="brandon-and-sarah.svg">
  <metadata
     id="metadata3092">
    <rdf:RDF>
      <cc:Work
         rdf:about="">
        <dc:format>image/svg+xml</dc:format>
        <dc:type
           rdf:resource="http://purl.org/dc/dcmitype/StillImage" />
        <dc:title></dc:title>
      </cc:Work>
    </rdf:RDF>
  </metadata>
  <defs
     id="defs3090" />
  <sodipodi:namedview
     pagecolor="#ffffff"
     bordercolor="#666666"
     borderopacity="1"
     objecttolerance="10"
     gridtolerance="10"
     guidetolerance="10"
     inkscape:pageopacity="0"
     inkscape:pageshadow="2"
     inkscape:window-width="1920"
     inkscape:window-height="1000"
     id="namedview3088"
     showgrid="false"
     inkscape:zoom="2.0000001"
     inkscape:cx="163.56288"
     inkscape:cy="99.610491"
     inkscape:window-x="0"
     inkscape:window-y="0"
     inkscape:window-maximized="0"
     inkscape:current-layer="layer1" />
  <g
     inkscape:groupmode="layer"
     id="layer1"
     inkscape:label="Layer"
     style="display:inline">
    <path
       style="fill:#000000"
       d="m 142.60629,212.62788 c -3.16648,-1.43738 -5.25765,-3.50333 -8.28114,-8.18126 -11.35167,-17.56324 -8.8794,-32.77191 8.14957,-50.13367 l 7.63266,-7.78183 -5.96792,-7.71817 c -13.24352,-17.12754 -14.21448,-29.02622 -2.97357,-36.43973 3.35658,-2.21371 6.39583,-2.24278 10.90235,-0.1043 7.12485,3.38096 10.14393,18.32586 3.70208,18.32586 -0.64471,0 -1.47469,-1.89172 -1.84441,-4.20382 -1.42983,-8.94168 -7.04255,-13.7327 -12.49964,-10.66972 -3.8199,2.14406 -5.25414,5.62388 -4.65604,11.2967 0.58654,5.56311 4.22386,11.60042 12.55129,20.83292 l 5.19181,5.75609 2.89498,-1.71011 c 5.27897,-3.11837 11.9074,-10.30631 14.84016,-16.09284 3.36578,-6.64091 7.14895,-10.53788 9.74483,-10.03796 1.58205,0.30468 1.99435,2.10723 3.05137,13.34051 1.29073,13.71708 4.56569,26.27005 7.10816,27.24568 2.45485,0.94202 4.79958,-3.0794 8.75888,-15.0222 2.0486,-6.17939 3.92092,-11.76956 4.16071,-12.42261 0.2398,-0.65304 -1.39414,-2.12102 -3.63096,-3.26216 -4.81128,-2.45453 -5.90083,-5.43068 -4.13988,-11.30821 1.43051,-4.77461 6.00133,-9.74227 8.96401,-9.74227 1.1423,0 3.03071,0.95379 4.19646,2.11954 2.19701,2.19701 2.20876,2.85068 0.25498,14.19408 l -0.65685,3.81362 8.64116,-0.70114 c 0,0 3.81876,-0.28221 5.39117,0.61136 0.69431,0.39456 1.8125,1.9249 1.8125,1.9249 1.68177,1.78606 0.797,7.17214 0.0142,14.04377 -2.16583,19.01135 -2.71843,28.35938 -1.76138,29.79623 1.07843,1.61909 4.63379,-2.80023 8.67927,-10.78836 1.52807,-3.01731 3.79533,-7.09707 5.03835,-9.06614 1.46956,-2.32792 2.0832,-4.5052 1.75446,-6.22494 -1.17698,-6.15697 5.43099,-23.78302 10.37381,-27.67105 3.05856,-2.40586 6.24651,-1.90383 8.35219,-1.00499 0.76563,0.32681 1.30097,1.45316 1.47338,1.95312 0.32107,0.93102 1.15482,2.48859 0.7514,11 -0.45716,9.64511 -0.3238,11 1.08274,11 1.8645,0 11.41748,-9.19044 17.32241,-16.66501 3.9364,-4.98276 4.16021,-5.66976 6.34308,-19.4708 2.90166,-18.345472 4.77184,-24.951482 9.41368,-33.251872 4.14312,-7.4086 7.11722,-9.52917 11.27776,-8.0412 3.02165,1.08066 6.32218,6.66395 6.32218,10.69482 0,7.42899 -6.97431,21.87487 -21.14329,43.794092 l -6.82619,10.56004 -0.55659,11.93996 -0.55659,11.93997 5.16778,-9.98251 c 6.41082,-12.38366 8.86507,-15.63365 14.74889,-19.53093 3.76885,-2.49639 7.05481,-3.00862 9.15539,-2.78157 0,0 2.71677,0.19963 3.88557,0.82626 1.60058,0.85813 2.52298,4.8125 2.52298,4.8125 1.07653,2.88749 2.25119,9.21444 3.21761,13.56334 l 1.75713,7.90709 4.06364,-4.66523 c 4.23734,-4.86463 5.39481,-5.41778 7.31621,-3.49638 1.3841,1.3841 -3.61891,8.90401 -7.99873,12.02271 -5.4208,3.85995 -7.46666,1.13729 -11.73232,-15.61362 -1.11184,-4.36608 -2.02152,-8.72702 -2.02152,-9.69098 0,-5.86759 -8.32441,-0.49928 -14.93982,9.63451 -4.6681,7.15081 -14.06018,27.69525 -14.06018,30.75554 0,0.82191 -0.66968,2.05016 -1.48817,2.72945 -2.41299,2.0026 -2.70846,-0.44437 -2.34652,-19.43296 0.18408,-9.65746 0.18936,-17.55861 0.0117,-17.55811 -0.17763,4.9e-4 -2.42763,2.24157 -5,4.98018 -6.082,6.47507 -10.9953,10.02071 -13.88599,10.02071 -3.49725,0 -6.27564,-5.27619 -6.31909,-12 -0.0334,-5.1632 -0.1304,-5.37753 -1.58461,-3.5 -0.85199,1.1 -2.84047,4.53068 -4.41885,7.62373 -1.57838,3.09306 -4.21411,6.96807 -5.85719,8.61114 -2.60339,2.6034 -9.35245,15.98095 -13.16386,26.09259 -0.68983,1.83011 -2.3102,4.01936 -3.60083,4.86501 -2.09859,1.37506 -2.59089,1.37748 -4.65823,0.0229 -3.23453,-2.11934 -4.71757,-8.01251 -4.77702,-18.98246 -0.0453,-8.3619 1.23029,-22.1915 2.62719,-28.48291 0.47418,-2.13562 0.19953,-2.25 -5.40262,-2.25 l -5.9022,0 -1.76747,7.50528 c -2.85604,12.12778 -7.5045,22.68713 -10.77079,24.46671 -2.7101,1.47655 -2.90133,1.42072 -5.67872,-1.658 -2.93779,-3.25652 -5.07608,-9.163 -7.17312,-19.81399 l -1.18133,-6 -1.36874,5 c -2.21926,8.10694 -4.05466,11.5 -6.22066,11.5 -2.20218,0 -5.07288,-3.52126 -5.07288,-6.22251 0,-2.32253 -0.10061,-2.30218 -6.51515,1.31797 -5.40028,3.04773 -5.4122,3.34803 -4.84504,4.8654 0.56204,0.72465 1.87038,2.30745 2.64873,3.80902 0.77835,1.50157 3.25262,5.71139 5.49838,9.35516 10.61222,17.21844 11.91425,36.31209 3.15639,46.28674 -5.52583,6.29358 -18.17057,8.48385 -26.67953,4.62132 z m 16.16745,-8.41285 c 1.71601,-1.30886 4.40095,-4.73324 5.96653,-7.60973 2.59242,-4.76313 2.80692,-5.91385 2.403,-12.89123 -0.40803,-7.04854 -0.94869,-8.63865 -6.76041,-19.88258 -3.47429,-6.72174 -6.93474,-12.7341 -7.68987,-13.3608 -1.0916,-0.90595 -3.01462,0.51102 -9.38334,6.91405 -8.9344,8.98254 -11.90241,14.40458 -12.70002,23.20083 -0.60429,6.66423 0.72081,11.53825 4.97341,18.29338 3.79447,6.0274 6.74361,7.62548 14.16508,7.67579 4.71829,0.032 6.53288,-0.43841 9.02562,-2.33971 z m 19.53667,-72.43342 c 2.84653,-9.66255 2.16653,-12.37879 -1.2985,-5.18683 -1.63542,3.39444 -2.6536,7.20359 -2.65963,9.95 -0.0129,5.89535 1.27468,4.34584 3.95813,-4.76317 z m 77.02409,-11.17187 c 1.34731,-2.51747 0.78412,-3.52676 -1.48261,-2.65693 -1.82585,0.70064 -7.51198,12.18194 -7.49909,15.14197 0.008,1.79778 5.20155,-5.42177 8.9817,-12.48504 z m -47.91598,-2.18453 c 0.46029,-2.38173 0.85649,-5.79293 0.88044,-7.58043 0.0368,-2.74363 -0.31728,-3.25 -2.27231,-3.25 -1.66039,0 -2.952,1.13187 -4.56343,3.99902 -2.91726,5.19055 -2.56091,9.98917 0.86804,11.68942 3.10471,1.53947 4.01979,0.66564 5.08726,-4.85801 z m 96.98874,-40.330432 c 1.41951,-6.37656 0.92789,-13 -0.96491,-13 -1.93817,0 -7.71502,10.66012 -10.02537,18.5 -2.24021,7.60184 -5.08103,21.277922 -5.05946,24.356962 0.0231,3.29207 14.78257,-24.164722 16.04974,-29.856962 z M 74.949459,180.50025 c -4.006834,-3.15177 -6.766308,-9.36319 -6.82012,-15.3517 -0.07077,-7.87534 2.337713,-11.00053 9.635224,-12.50247 2.415467,-0.49715 3.225533,-1.46391 4.672496,-5.57636 2.445225,-6.94962 2.306194,-9.51711 -0.844559,-15.59649 -2.137245,-4.12381 -2.746176,-6.67716 -2.732839,-11.45927 0.01027,-3.68387 0.561041,-6.80848 1.372445,-7.78616 1.605436,-1.93444 6.426639,-2.16182 7.911129,-0.37312 1.712164,2.06303 2.437494,12.78318 1.323954,19.5677 -0.910864,5.54961 -0.782764,7.02503 1.04188,12 1.14423,3.11982 2.45409,6.07914 2.9108,6.57627 1.09616,1.19318 7.738311,-3.90523 9.163901,-7.03405 0.83473,-1.83205 0.7998,-2.72273 -0.14303,-3.64695 -0.9877,-0.96818 -1.75161,-0.59806 -3.667911,1.77713 -2.11331,2.61938 -2.42102,2.74277 -2.42536,0.97251 -0.009,-3.59549 2.81453,-6.47251 6.351731,-6.47251 4.09734,0 5.64331,1.54016 5.64331,5.62208 0,2.53707 -0.87531,3.97131 -4.11727,6.7463 -2.2645,1.93832 -5.453531,3.81771 -7.086751,4.17643 l -2.96949,0.65221 0.7786,6.15149 c 0.42823,3.38332 0.70571,7.50149 0.61662,9.15149 -0.27961,5.17874 -3.05494,10.97027 -6.12648,12.78467 -4.094693,2.41879 -11.166514,2.23371 -14.48828,-0.3792 z m 11.248317,-2.43715 c 3.533593,-2.97332 4.835813,-9.75318 3.451193,-17.96832 -0.834464,-4.95105 -0.881704,-5.00288 -4.824594,-5.29467 -3.712769,-0.27476 -4.113693,-0.0382 -5.932345,3.5 -2.324482,4.52232 -4.518373,7.29467 -5.772612,7.29467 -0.502208,0 0.0063,-1.29123 1.130082,-2.86939 1.123754,-1.57817 2.485069,-4.03163 3.025145,-5.45214 1.516843,-3.9896 -1.165214,-2.38777 -3.774035,2.254 -4.109289,7.31149 -2.121903,16.35135 4.290551,19.51607 4.135462,2.04096 4.925643,1.94883 8.406615,-0.98022 z m 2.682029,-26.52868 c 0.720184,-1.16527 -1.352411,-6.93964 -2.490844,-6.93964 -0.936489,0 -2.986755,6.72637 -2.269035,7.44409 0.944481,0.94448 4.069039,0.61334 4.759879,-0.50445 z M 87.3425,119.09478 c -0.409825,-4.09825 -0.847723,-5 -2.428053,-5 -4.147404,0 -4.016746,10.14764 0.230488,17.90106 l 1.697565,3.09894 0.5,-5.5 c 0.275,-3.025 0.275,-7.75 0,-10.5 z m -43.878198,13.59644 c -0.758008,-0.48011 -2.558008,-3.04854 -4,-5.70762 -2.163062,-3.98875 -3.409173,-5.1049 -7.121802,-6.37905 -3.39232,-1.16423 -4.930382,-2.40164 -6.248446,-5.02707 -2.147925,-4.27842 -2.194378,-7.12855 -0.224308,-13.76249 1.45323,-4.893562 1.406464,-5.619292 -0.96495,-14.974462 -3.244409,-12.79911 -5.520871,-27.12399 -5.821687,-36.63357 -0.132335,-4.18347 -0.547467,-7.60763 -0.922515,-7.60925 -1.112582,-0.005 -4.643781,5.4246 -6.800597,10.45625 -1.4518074,3.38693 -2.4937054,4.59576 -3.7522194,4.35339 -4.464165,-0.85972 -1.647238,-9.53286 6.5184534,-20.06989 5.034482,-6.49652 5.693909,-7.91234 6.400761,-13.74268 1.280868,-10.56502 2.868899,-17.0000041 4.195276,-17.0000041 0.680885,0 2.043811,0.589244 3.028725,1.30943 1.551382,1.134398 1.644511,1.836168 0.696707,5.2500041 -0.601725,2.16731 -1.096556,5.55892 -1.099623,7.5369 l -0.0056,3.59633 5.25,-1.81368 c 7.217257,-2.49331 10.063354,-2.32764 13.783084,0.80231 2.90165,2.44158 3.146637,3.08975 2.740264,7.25 -0.268541,2.74918 -2.704442,9.312 -6.116389,16.47879 -3.118565,6.55055 -5.53366,12.04655 -5.366877,12.21333 0.166782,0.16678 2.532243,-0.38405 5.256579,-1.22408 5.977213,-1.84302 11.345377,-1.32446 15.278031,1.47584 l 2.918344,2.07804 4.128482,-5.88555 c 4.350072,-6.20143 4.993954,-8.06766 2.783493,-8.06766 -4.478022,0 -6.056156,-8.18962 -2.653547,-13.7704 2.970513,-4.87207 6.084089,-5.95258 10.182707,-3.53374 3.206758,1.89251 3.31267,2.16001 3.219131,8.13052 l -0.09672,6.17362 5.84672,0 c 6.68276,0 6.65739,-0.0506 4.443956,8.85565 -1.870296,7.52556 -2.983113,20.14435 -1.776476,20.14435 0.518025,0 2.215066,-1.6875 3.7712,-3.75 7.77356,-10.30309 15.180411,-18.38863 18.125221,-19.78603 2.10931,-1.00094 4.48006,-1.33 6.64967,-0.92298 l 3.37169,0.63254 0.46217,18.44466 c 0.28563,11.39921 0.87975,18.86226 1.55539,19.53789 1.65756,1.65757 7.2073,-10.2992 12.14035,-26.15608 5.77435,-18.56118 5.97124,-19 8.52488,-19 3.96932,0 4.60454,1.75027 3.97085,10.94114 l -0.59011,8.55886 4.17677,-4.75 c 3.19205,-3.63012 4.86573,-4.75 7.09898,-4.75 1.6072,0 2.93111,0.3375 2.94201,0.75 0.0109,0.4125 0.29064,5.97711 0.62165,12.3658 0.60968,11.76739 0.18869,13.52372 -2.95269,12.31827 -2.1635,-0.83022 -2.44987,-2.9234 -1.70114,-12.43407 0.36805,-4.675 0.51674,-8.69215 0.33043,-8.927 -0.52162,-0.65753 -2.93153,2.89095 -5.84486,8.60625 -1.45204,2.84859 -3.19025,8.4445 -3.86269,12.43535 -1.30458,7.7426 -2.56169,9.14455 -5.67407,6.32788 -1.83676,-1.66224 -1.9111,-2.73727 -1.30362,-18.85262 0.35432,-9.39943 0.40513,-16.86486 0.11292,-16.58986 -0.29222,0.275 -1.9025,6.125 -3.5784,13 -5.53898,22.72234 -10.07647,34 -13.67968,34 -0.75688,0 -2.53794,-1.0125 -3.95791,-2.25 -2.17703,-1.89727 -2.76464,-3.634 -3.74825,-11.07816 l -1.16647,-8.82816 -2.41942,4.82816 c -3.11701,6.22025 -6.00561,9.32816 -8.66994,9.32816 -5.693761,0 -6.005501,-6.67872 -1.07358,-23 0.56309,-1.86346 -1.158781,-0.61843 -6.762651,4.88986 -8.338336,8.19611 -9.797154,8.48997 -12.308534,2.47939 -1.646816,-3.94139 -1.327494,-9.45938 1.106416,-19.11925 l 1.322795,-5.25 -2.940801,0 c -3.331187,0 -4.601911,1.21487 -12.342389,11.7999 -5.103494,6.97898 -5.293551,7.46151 -4.323164,10.97596 0.558256,2.02184 0.834743,7.79773 0.614416,12.83532 -0.354881,8.11408 -0.81969,9.99966 -4.073282,16.52404 -3.992734,8.006562 -7.783928,12.538682 -13.843011,16.548392 -2.146048,1.42019 -3.901905,2.80509 -3.901905,3.07755 0,0.27246 1.392075,2.92848 3.093501,5.90226 1.701425,2.97378 2.840548,6.06606 2.531385,6.87173 -0.62363,1.62515 -3.379644,1.90625 -5.503084,0.56129 z m -8.002777,-14.36989 c 0.02852,-1.64805 -5.656717,-16.7215 -6.307752,-16.72395 -0.3788,-0.001 -0.980495,1.94305 -1.3371,4.32106 -0.671732,4.47943 1.344161,11.29138 3.814614,12.89004 1.426791,0.9233 3.81108,0.62005 3.830238,-0.48715 z m 13.082106,-8.47655 c 7.910609,-8.12275 12.480018,-23.542802 10.33468,-34.875682 l -0.733418,-3.87432 -2.651196,3.11011 c -1.458158,1.71057 -6.813697,6.5581 -11.901197,10.7723 -5.354853,4.43566 -9.25,8.41439 -9.25,9.44848 0,1.6055 5.390294,17.373572 6.618462,19.360792 1.05739,1.71089 3.123895,0.63666 7.582669,-3.94168 z m 1.601206,-36.610522 c 6.860977,-7.15823 7.076357,-8.70719 1.700497,-12.22958 -2.040377,-1.33691 -3.029965,-1.39886 -6.214816,-0.38904 -6.376679,2.02185 -12.207919,5.90098 -14.832579,9.86711 -2.4915,3.76491 -2.494546,3.79867 -0.919751,10.19472 0.869015,3.52952 1.781215,7.0224 2.027111,7.76197 0.525373,1.58013 8.61512,-5.1638 18.239538,-15.20518 z m 55.802493,3.15236 c 3.33984,-6.63202 7.24485,-22.27551 5.897,-23.62336 -1.18498,-1.18498 -5.17402,4.14052 -6.40742,8.55409 -3.30427,11.82408 -4.99679,22.27743 -3.60698,22.27743 0.26808,0 2.12091,-3.24367 4.1174,-7.20816 z M 35.269161,54.504468 c 8.956275,-17.09337 10.583566,-27.959991 7.269853,-28.91534 0,0 -2.153465,-0.441029 -3.24895,-0.399164 -1.225953,0.04685 -3.50105,0.752804 -3.50105,0.752804 -10.901296,3.191271 -9.980182,4.6459 -9.701185,20.34628 0.269401,15.16031 1.021057,21.95175 2.285661,20.65163 0.452535,-0.46525 3.555587,-6.06154 6.895671,-12.43621 z m 37.754631,-13.79354 c 2.135652,-7.37635 -1.480523,-12.1239 -5.066282,-6.65134 -2.187676,3.33882 -2.112678,9.14646 0.13499,10.45326 2.656009,1.5442 3.592484,0.8222 4.931292,-3.80192 z m 113.631558,51.63385 c -2.58823,-2.86057 -4.35116,-7.88464 -5.00028,-14.25 -0.28044,-2.75 -0.69723,-5.19425 -0.92621,-5.43165 -0.22897,-0.23741 -1.92731,1.03287 -3.7741,2.82285 -4.19582,4.06675 -9.27062,4.11524 -11.38768,0.1088 -2.78716,-5.27459 0.99386,-20.44099 5.72757,-22.97439 1.17715,-0.62999 3.58198,-0.98516 5.34407,-0.78926 l 3.20379,0.35618 -2.6977,1.1591 c -3.46596,1.48919 -5.59811,4.80007 -7.36443,11.43578 -3.02333,11.35802 -1.17564,12.71154 5.56711,4.07817 l 4.47864,-5.73442 0.66068,-16.01558 c 0.80454,-19.50258 1.55428,-25.4584 4.06064,-32.25694 2.03667,-5.5244851 4.81601,-8.2586441 8.39512,-8.2586441 3.45969,0 4.7078,2.603058 5.18107,10.8056041 0.64261,11.13764 -1.67098,21.58124 -8.1304,36.70083 l -5.55114,12.99357 0.93334,7.5 c 0.51333,4.125 1.66016,9.43088 2.54851,11.79085 1.93333,5.13605 2.98874,4.65189 6.78828,-3.11411 6.4573,-13.19823 8.86619,-20.29968 11.93232,-35.17674 1.05488,-5.1183 1.58491,-6.04965 3.60688,-6.33785 1.97489,-0.28149 2.27921,0.0104 1.8243,1.75 -0.30029,1.14832 -0.12912,2.08785 0.38038,2.08785 0.5095,0 4.95838,-2.025 9.8864,-4.5 9.85413,-4.94905 11.12792,-5.22923 13.40793,-2.94922 1.21255,1.21256 1.41517,2.84835 0.92897,7.5 -0.342,3.27207 -0.34185,5.94922 3.2e-4,5.94922 0.34217,0 1.52225,-1.76438 2.62239,-3.92083 2.44469,-4.79199 10.18306,-12.80272 13.63536,-14.11528 3.78815,-1.44025 8.99409,-1.16398 10.41899,0.55293 1.50367,1.8118 0.86735,10.63968 -2.03548,28.23925 -1.98381,12.02766 -2.58898,24.24393 -1.20099,24.24393 0.42763,0 1.7985,-0.71514 3.04638,-1.5892 1.24789,-0.87405 2.92302,-1.33817 3.72251,-1.03138 2.68308,1.02959 1.48797,3.5624 -2.68557,5.69158 -4.11105,2.09731 -4.15693,2.09845 -6.75,0.1678 -4.42441,-3.29415 -4.70222,-7.83587 -1.74175,-28.4748 1.44702,-10.08789 2.63094,-20.03709 2.63094,-22.10935 l 0,-3.76773 -3.02996,1.78985 c -1.66648,0.98441 -4.34675,3.14842 -5.95616,4.8089 -3.9032,4.02708 -11.65042,17.73043 -13.7179,24.26433 -0.95472,3.01722 -2.25213,5.25 -3.05065,5.25 -1.13846,0 -1.33125,-2.70959 -1.06738,-15.0014 0.17713,-8.25077 0.0407,-15.00077 -0.30311,-15 -0.8008,0.002 -14.97624,6.61017 -16.6058,7.74139 -0.94957,0.65917 -0.75584,2.10102 0.84744,6.30726 1.45485,3.81681 1.94106,6.9002 1.6206,10.27724 -0.89143,9.39407 -7.57835,13.64865 -10.78335,6.86095 l -1.56506,-3.31455 -3.80927,9.62442 c -5.74303,14.51021 -9.75664,18.23915 -14.26656,13.25469 z m 24.8939,-32.49443 c -0.22866,-2.33444 -0.81872,-3.99538 -1.31124,-3.69099 -1.07753,0.66595 -1.20847,11.78911 -0.15124,12.84635 1.08943,1.08942 1.94273,-4.25238 1.46248,-9.15536 z m -22.03099,-22.75557 c 2.36616,-8.95936 3.63987,-26.500004 1.92428,-26.500004 -2.91246,0 -5.59446,11.845924 -6.5658,29.000004 -0.57971,10.23788 -0.55227,10.42511 1.09913,7.5 0.93153,-1.65 2.5256,-6.15 3.54239,-10 z"
       id="path3096"
       inkscape:connector-curvature="0"
       sodipodi:nodetypes="ssscsssssssscsssssscsssssccsssssssssssssssssscccsssssscssssssssscsssssssssssscsssscsssscsssssssssssssssssssscsscssssssscsssssssssssssssssssscssssssssscssssssssssscssssssssscsssssssscssssssscssssscsssssscssssscssssssssssscsssscsssssscssssssssssscssssscsssssssssssssssssssssssssssssscsssscssscssssscsssssssssssssssssssssscssssscsssscsssssssssss" />
  </g>
</svg>
