<?xml version="1.0" encoding="UTF-8" standalone="no"?>
<!-- Created with Inkscape (http://www.inkscape.org/) -->

<svg
   xmlns:dc="http://purl.org/dc/elements/1.1/"
   xmlns:cc="http://creativecommons.org/ns#"
   xmlns:rdf="http://www.w3.org/1999/02/22-rdf-syntax-ns#"
   xmlns:svg="http://www.w3.org/2000/svg"
   xmlns="http://www.w3.org/2000/svg"
   xmlns:sodipodi="http://sodipodi.sourceforge.net/DTD/sodipodi-0.dtd"
   xmlns:inkscape="http://www.inkscape.org/namespaces/inkscape"
   id="svg3086"
   version="1.1"
   inkscape:version="0.48.3.1 r9886"
   width="343"
   height="223"
   sodipodi:docname="brandon-and-sarah.svg">
  <metadata
     id="metadata3092">
    <rdf:RDF>
      <cc:Work
         rdf:about="">
        <dc:format>image/svg+xml</dc:format>
        <dc:type
           rdf:resource="http://purl.org/dc/dcmitype/StillImage" />
        <dc:title></dc:title>
      </cc:Work>
    </rdf:RDF>
  </metadata>
  <defs
     id="defs3090" />
  <sodipodi:namedview
     pagecolor="#ffffff"
     bordercolor="#666666"
     borderopacity="1"
     objecttolerance="10"
     gridtolerance="10"
     guidetolerance="10"
     inkscape:pageopacity="0"
     inkscape:pageshadow="2"
     inkscape:window-width="1276"
     inkscape:window-height="969"
     id="namedview3088"
     showgrid="false"
     inkscape:zoom="1.4142136"
     inkscape:cx="202.89895"
     inkscape:cy="97.525438"
     inkscape:window-x="0"
     inkscape:window-y="0"
     inkscape:window-maximized="0"
     inkscape:current-layer="layer1" />
  <path
     style="fill:#000000"
     d="m 142.26378,214.0331 c -3.16648,-1.43738 -5.25765,-3.50333 -8.28114,-8.18126 -11.35167,-17.56324 -8.8794,-32.77191 8.14957,-50.13367 l 7.63266,-7.78183 -5.96792,-7.71817 c -13.24352,-17.12754 -14.21448,-29.02622 -2.97357,-36.43973 3.35658,-2.21371 6.39583,-2.24278 10.90235,-0.1043 7.12485,3.38096 10.14393,18.32586 3.70208,18.32586 -0.64471,0 -1.47469,-1.89172 -1.84441,-4.20382 -1.42983,-8.94168 -7.04255,-13.7327 -12.49964,-10.66972 -3.8199,2.14406 -5.25414,5.62388 -4.65604,11.2967 0.58654,5.56311 4.22386,11.60042 12.55129,20.83292 l 5.19181,5.75609 2.89498,-1.71011 c 5.27897,-3.11837 11.9074,-10.30631 14.84016,-16.09284 3.36578,-6.64091 7.14895,-10.53788 9.74483,-10.03796 1.58205,0.30468 1.99435,2.10723 3.05137,13.34051 1.29073,13.71708 4.56569,26.27005 7.10816,27.24568 2.45485,0.94202 4.79958,-3.0794 8.75888,-15.0222 2.0486,-6.17939 3.92092,-11.76956 4.16071,-12.42261 0.2398,-0.65304 -1.39414,-2.12102 -3.63096,-3.26216 -4.81128,-2.45453 -5.90083,-5.43068 -4.13988,-11.30821 1.43051,-4.77461 6.00133,-9.74227 8.96401,-9.74227 1.1423,0 3.03071,0.95379 4.19646,2.11954 2.19701,2.19701 2.20876,2.85068 0.25498,14.19408 l -0.65685,3.81362 8.64116,-0.70114 c 0,0 3.81876,-0.28221 5.39117,0.61136 0.69431,0.39456 1.8125,1.9249 1.8125,1.9249 1.68177,1.78606 0.797,7.17214 0.0142,14.04377 -2.16583,19.01135 -2.71843,28.35938 -1.76138,29.79623 1.07843,1.61909 4.63379,-2.80023 8.67927,-10.78836 1.52807,-3.01731 3.79533,-7.09707 5.03835,-9.06614 1.46956,-2.32792 2.0832,-4.5052 1.75446,-6.22494 -1.17698,-6.15697 5.43099,-23.78302 10.37381,-27.67105 3.05856,-2.40586 6.24651,-1.90383 8.35219,-1.00499 0.76563,0.32681 1.30097,1.45316 1.47338,1.95312 0.32107,0.93102 1.15482,2.48859 0.7514,11 -0.45716,9.64511 -0.3238,11 1.08274,11 1.8645,0 11.41748,-9.19044 17.32241,-16.66501 3.9364,-4.98276 4.16021,-5.66976 6.34308,-19.4708 2.90166,-18.345464 4.77184,-24.951477 9.41368,-33.251866 4.14312,-7.408598 7.11722,-9.529166 11.27776,-8.041196 3.02165,1.080655 6.32218,6.663949 6.32218,10.694816 0,7.428986 -6.97431,21.874869 -21.14329,43.794086 l -6.82619,10.56004 -0.55659,11.93996 -0.55659,11.93997 5.16778,-9.98251 c 6.41082,-12.38366 8.86507,-15.63365 14.74889,-19.53093 3.76885,-2.49639 7.05481,-3.00862 9.15539,-2.78157 0,0 2.71677,0.19963 3.88557,0.82626 1.60058,0.85813 2.52298,4.8125 2.52298,4.8125 1.07653,2.88749 2.25119,9.21444 3.21761,13.56334 l 1.75713,7.90709 4.06364,-4.66523 c 4.23734,-4.86463 5.39481,-5.41778 7.31621,-3.49638 1.3841,1.3841 -3.61891,8.90401 -7.99873,12.02271 -5.4208,3.85995 -7.46666,1.13729 -11.73232,-15.61362 C 313.90968,131.19558 313,126.83464 313,125.87068 c 0,-5.86759 -8.32441,-0.49928 -14.93982,9.63451 C 293.39208,142.656 284,163.20044 284,166.26073 c 0,0.82191 -0.66968,2.05016 -1.48817,2.72945 -2.41299,2.0026 -2.70846,-0.44437 -2.34652,-19.43296 0.18408,-9.65746 0.18936,-17.55861 0.0117,-17.55811 -0.17763,4.9e-4 -2.42763,2.24157 -5,4.98018 -6.082,6.47507 -10.9953,10.02071 -13.88599,10.02071 -3.49725,0 -6.27564,-5.27619 -6.31909,-12 -0.0334,-5.1632 -0.1304,-5.37753 -1.58461,-3.5 -0.85199,1.1 -2.84047,4.53068 -4.41885,7.62373 -1.57838,3.09306 -4.21411,6.96807 -5.85719,8.61114 -2.60339,2.6034 -9.35245,15.98095 -13.16386,26.09259 -0.68983,1.83011 -2.3102,4.01936 -3.60083,4.86501 -2.09859,1.37506 -2.59089,1.37748 -4.65823,0.0229 -3.23453,-2.11934 -4.71757,-8.01251 -4.77702,-18.98246 -0.0453,-8.3619 1.23029,-22.1915 2.62719,-28.48291 0.47418,-2.13562 0.19953,-2.25 -5.40262,-2.25 l -5.9022,0 -1.76747,7.50528 c -2.85604,12.12778 -7.5045,22.68713 -10.77079,24.46671 -2.7101,1.47655 -2.90133,1.42072 -5.67872,-1.658 -2.93779,-3.25652 -5.07608,-9.163 -7.17312,-19.81399 l -1.18133,-6 -1.36874,5 c -2.21926,8.10694 -4.05466,11.5 -6.22066,11.5 C 171.8707,150 169,146.47874 169,143.77749 c 0,-2.32253 -0.10061,-2.30218 -6.51515,1.31797 -5.40028,3.04773 -5.4122,3.34803 -4.84504,4.8654 0.56204,0.72465 1.87038,2.30745 2.64873,3.80902 0.77835,1.50157 3.25262,5.71139 5.49838,9.35516 10.61222,17.21844 11.91425,36.31209 3.15639,46.28674 -5.52583,6.29358 -18.17057,8.48385 -26.67953,4.62132 z m 16.16745,-8.41285 c 1.71601,-1.30886 4.40095,-4.73324 5.96653,-7.60973 2.59242,-4.76313 2.80692,-5.91385 2.403,-12.89123 -0.40803,-7.04854 -0.94869,-8.63865 -6.76041,-19.88258 -3.47429,-6.72174 -6.93474,-12.7341 -7.68987,-13.3608 -1.0916,-0.90595 -3.01462,0.51102 -9.38334,6.91405 -8.9344,8.98254 -11.90241,14.40458 -12.70002,23.20083 -0.60429,6.66423 0.72081,11.53825 4.97341,18.29338 3.79447,6.0274 6.74361,7.62548 14.16508,7.67579 4.71829,0.032 6.53288,-0.43841 9.02562,-2.33971 z m 19.53667,-72.43342 c 2.84653,-9.66255 2.16653,-12.37879 -1.2985,-5.18683 -1.63542,3.39444 -2.6536,7.20359 -2.65963,9.95 -0.0129,5.89535 1.27468,4.34584 3.95813,-4.76317 z m 77.02409,-11.17187 c 1.34731,-2.51747 0.78412,-3.52676 -1.48261,-2.65693 -1.82585,0.70064 -7.51198,12.18194 -7.49909,15.14197 0.008,1.79778 5.20155,-5.42177 8.9817,-12.48504 z m -47.91598,-2.18453 c 0.46029,-2.38173 0.85649,-5.79293 0.88044,-7.58043 0.0368,-2.74363 -0.31728,-3.25 -2.27231,-3.25 -1.66039,0 -2.952,1.13187 -4.56343,3.99902 -2.91726,5.19055 -2.56091,9.98917 0.86804,11.68942 3.10471,1.53947 4.01979,0.66564 5.08726,-4.85801 z M 304.06475,79.5 c 1.41951,-6.37656 0.92789,-13 -0.96491,-13 -1.93817,0 -7.71502,10.660122 -10.02537,18.5 -2.24021,7.601841 -5.08103,21.27792 -5.05946,24.35696 0.0231,3.29207 14.78257,-24.164718 16.04974,-29.85696 z M 74.606959,181.90547 c -4.006834,-3.15177 -6.766308,-9.36319 -6.82012,-15.3517 -0.07077,-7.87534 2.337713,-11.00053 9.635224,-12.50247 2.415467,-0.49715 3.225533,-1.46391 4.672496,-5.57636 2.445225,-6.94962 2.306194,-9.51711 -0.844559,-15.59649 -2.137245,-4.12381 -2.746176,-6.67716 -2.732839,-11.45927 0.01027,-3.68387 0.561041,-6.80848 1.372445,-7.78616 1.605436,-1.93444 6.426639,-2.16182 7.911129,-0.37312 1.712164,2.06303 2.437489,12.78318 1.323949,19.5677 -0.910855,5.54961 -0.782754,7.02503 1.041879,12 1.144234,3.11982 2.454096,6.07914 2.910804,6.57627 1.096157,1.19318 7.738313,-3.90523 9.163903,-7.03405 0.83473,-1.83205 0.7998,-2.72273 -0.14303,-3.64695 -0.9877,-0.96818 -1.75161,-0.59806 -3.667912,1.77713 -2.113311,2.61938 -2.421024,2.74277 -2.425361,0.97251 C 95.996159,139.87702 98.819495,137 102.3567,137 c 4.09733,0 5.6433,1.54016 5.6433,5.62208 0,2.53707 -0.87531,3.97131 -4.11726,6.7463 -2.2645,1.93832 -5.453535,3.81771 -7.086756,4.17643 l -2.969491,0.65221 0.778601,6.15149 c 0.42823,3.38332 0.705711,7.50149 0.616624,9.15149 -0.279611,5.17874 -3.054939,10.97027 -6.126483,12.78467 -4.094689,2.41879 -11.16651,2.23371 -14.488276,-0.3792 z m 11.248317,-2.43715 c 3.533592,-2.97332 4.835805,-9.75318 3.451194,-17.96832 -0.834469,-4.95105 -0.881705,-5.00288 -4.824595,-5.29467 -3.712769,-0.27476 -4.113693,-0.0382 -5.932345,3.5 C 76.225048,164.22765 74.031157,167 72.776918,167 c -0.502208,0 0.0063,-1.29123 1.130082,-2.86939 1.123754,-1.57817 2.485069,-4.03163 3.025145,-5.45214 1.516843,-3.9896 -1.165214,-2.38777 -3.774035,2.254 -4.109289,7.31149 -2.121903,16.35135 4.290551,19.51607 4.135462,2.04096 4.925643,1.94883 8.406615,-0.98022 z m 2.682027,-26.52868 C 89.257484,151.77437 87.184894,146 86.046461,146 c -0.936489,0 -2.986755,6.72637 -2.269035,7.44409 0.944481,0.94448 4.069044,0.61334 4.759877,-0.50445 z M 87,120.5 c -0.409825,-4.09825 -0.847723,-5 -2.428053,-5 -4.147404,0 -4.016746,10.14764 0.230488,17.90106 L 86.5,136.5 87,131 c 0.275,-3.025 0.275,-7.75 0,-10.5 z m -43.878198,13.59644 c -0.758008,-0.48011 -2.558008,-3.04854 -4,-5.70762 -2.163062,-3.98875 -3.409173,-5.1049 -7.121802,-6.37905 -3.39232,-1.16423 -4.930382,-2.40164 -6.248446,-5.02707 -2.147925,-4.27842 -2.194378,-7.12855 -0.224308,-13.76249 1.45323,-4.893558 1.406464,-5.619281 -0.96495,-14.974452 C 21.317887,75.44664 19.041425,61.121762 18.740609,51.612179 18.608274,47.42871 18.193142,44.00455 17.818094,44.002936 c -1.112582,-0.0048 -4.643781,5.424599 -6.800597,10.456245 -1.4518076,3.38693 -2.4937055,4.595758 -3.7522197,4.35339 C 2.8011125,57.952852 5.6180397,49.279717 13.783731,38.742679 18.818213,32.246165 19.47764,30.830348 20.184492,25 21.46536,14.434984 23.053391,8 24.379768,8 c 0.680885,0 2.043811,0.5892436 3.028725,1.3094302 1.551382,1.1343978 1.644511,1.8361678 0.696707,5.2499998 -0.601725,2.167314 -1.096556,5.55892 -1.099623,7.536904 L 27,25.692667 32.25,23.878979 c 7.217257,-2.493304 10.063354,-2.327633 13.783084,0.802313 2.90165,2.441578 3.146637,3.089747 2.740264,7.25 -0.268541,2.749183 -2.704442,9.311997 -6.116389,16.478795 -3.118565,6.550548 -5.53366,12.046546 -5.366877,12.213328 0.166782,0.166783 2.532243,-0.384052 5.256579,-1.224077 5.977213,-1.84302 11.345377,-1.324465 15.278031,1.475832 l 2.918344,2.078044 4.128482,-5.885555 C 69.221567,50.866238 69.865449,49 67.654988,49 c -4.478022,0 -6.056156,-8.189618 -2.653547,-13.770392 2.970513,-4.872074 6.084089,-5.952589 10.182707,-3.53374 3.206758,1.892507 3.31267,2.160007 3.219131,8.130511 L 78.306559,46 l 5.84672,0 c 6.682761,0 6.657383,-0.05057 4.443955,8.855655 C 86.726939,62.381209 85.614122,75 86.820759,75 c 0.518025,0 2.215062,-1.6875 3.771195,-3.75 7.773559,-10.303087 15.180406,-18.388627 18.125216,-19.786028 2.10931,-1.000937 4.48006,-1.329996 6.64967,-0.922974 l 3.37169,0.632533 0.46217,18.444668 c 0.28563,11.399207 0.87975,18.862255 1.55539,19.537889 1.65756,1.657565 7.2073,-10.2992 12.14035,-26.156088 5.77435,-18.561175 5.97124,-19 8.52488,-19 3.96932,0 4.60454,1.750271 3.97085,10.941142 L 144.80206,63.5 l 4.17677,-4.75 c 3.19205,-3.63012 4.86573,-4.75 7.09898,-4.75 1.6072,0 2.93111,0.3375 2.94201,0.75 0.0109,0.4125 0.29064,5.97711 0.62165,12.3658 0.60968,11.767391 0.18869,13.523728 -2.95269,12.31827 -2.1635,-0.830214 -2.44987,-2.923399 -1.70114,-12.43407 0.36805,-4.675 0.51674,-8.69215 0.33043,-8.926999 -0.52162,-0.65753 -2.93153,2.890948 -5.84486,8.606253 -1.45204,2.84859 -3.19025,8.444497 -3.86269,12.435348 -1.30458,7.742601 -2.56169,9.144555 -5.67407,6.327882 -1.83676,-1.662241 -1.9111,-2.737268 -1.30362,-18.852621 C 138.98715,57.190438 139.03796,49.725 138.74575,50 c -0.29222,0.275 -1.9025,6.125 -3.5784,13 -5.53898,22.722343 -10.07647,34 -13.67968,34 -0.75688,0 -2.53794,-1.0125 -3.95791,-2.25 -2.17703,-1.897267 -2.76464,-3.633992 -3.74825,-11.078157 l -1.16647,-8.828158 -2.41942,4.828158 C 107.07861,85.892099 104.19002,89 101.52569,89 c -5.693763,0 -6.005507,-6.678713 -1.07358,-23 0.56309,-1.86346 -1.158785,-0.618423 -6.762656,4.889866 -8.338331,8.196109 -9.797149,8.489969 -12.308529,2.479389 C 79.734109,69.427869 80.053431,63.909873 82.487341,54.25 L 83.810136,49 80.869335,49 c -3.331187,0 -4.601911,1.214872 -12.342389,11.799902 -5.103494,6.97898 -5.293551,7.461512 -4.323164,10.975967 0.558256,2.021835 0.834743,7.797729 0.614416,12.835319 -0.354881,8.114078 -0.81969,9.999661 -4.073282,16.524032 -3.992734,8.00656 -7.783928,12.53868 -13.843011,16.54839 C 44.755857,119.1038 43,120.4887 43,120.76116 c 0,0.27246 1.392075,2.92848 3.093501,5.90226 1.701425,2.97378 2.840548,6.06606 2.531385,6.87173 -0.62363,1.62515 -3.379644,1.90625 -5.503084,0.56129 z m -8.002777,-14.36989 c 0.02852,-1.64805 -5.656717,-16.7215 -6.307752,-16.72395 -0.3788,-0.001 -0.980495,1.94305 -1.3371,4.32106 -0.671732,4.47943 1.344161,11.29138 3.814614,12.89004 1.426791,0.9233 3.81108,0.62005 3.830238,-0.48715 z M 48.201131,111.25 C 56.11174,103.12725 60.681149,87.707208 58.535811,76.374324 L 57.802393,72.5 55.151197,75.610119 C 53.693039,77.320685 48.3375,82.168219 43.25,86.382417 37.895147,90.818075 34,94.7968 34,95.830894 c 0,1.605504 5.390294,17.373566 6.618462,19.360786 1.05739,1.71089 3.123895,0.63666 7.582669,-3.94168 z m 1.601206,-36.610519 c 6.860977,-7.158223 7.076357,-8.707183 1.700497,-12.229581 -2.040377,-1.336906 -3.029965,-1.398853 -6.214816,-0.389034 -6.376679,2.021849 -12.207919,5.900976 -14.832579,9.867106 -2.4915,3.76491 -2.494546,3.798673 -0.919751,10.194724 0.869015,3.529517 1.781215,7.022403 2.027111,7.761968 0.525373,1.58013 8.61512,-5.163795 18.239538,-15.205183 z m 55.802483,3.152366 c 3.33984,-6.632022 7.24485,-22.275509 5.897,-23.623361 -1.18498,-1.184979 -5.17402,4.140516 -6.40741,8.554091 C 101.79014,74.546652 100.09762,85 101.48743,85 c 0.26808,0 2.12091,-3.243669 4.11739,-7.208153 z M 34.926661,55.909692 C 43.882936,38.816323 45.751435,31.384499 42.196514,26.994357 l -1.803486,-2.227211 -4.946514,2.580846 c -10.336419,5.393032 -9.980182,4.645898 -9.701185,20.346278 0.269401,15.160316 1.021057,21.951753 2.285661,20.65163 0.452535,-0.465245 3.555587,-6.061539 6.895671,-12.436208 z M 72.681292,42.116153 c 2.135652,-7.376352 -1.480523,-12.123896 -5.066282,-6.651336 -2.187676,3.338815 -2.112678,9.146458 0.13499,10.453254 2.656009,1.544205 3.592484,0.822203 4.931292,-3.801918 z M 186.31284,93.75 c -2.58823,-2.860565 -4.35116,-7.884634 -5.00028,-14.25 -0.28044,-2.75 -0.69723,-5.194241 -0.92621,-5.431647 -0.22897,-0.237406 -1.92731,1.032875 -3.7741,2.822848 -4.19582,4.066755 -9.27062,4.11524 -11.38768,0.108799 -2.78716,-5.274587 0.99386,-20.440982 5.72757,-22.974388 1.17715,-0.62999 3.58198,-0.985156 5.34407,-0.789258 l 3.20379,0.356179 -2.6977,1.159099 c -3.46596,1.489191 -5.59811,4.800073 -7.36443,11.435783 -3.02333,11.358018 -1.17564,12.711539 5.56711,4.078167 l 4.47864,-5.734417 0.66068,-16.015583 c 0.80454,-19.502581 1.55428,-25.458401 4.06064,-32.256938 C 186.24161,10.734159 189.02095,8 192.60006,8 c 3.45969,0 4.7078,2.603058 5.18107,10.805603 0.64261,11.137642 -1.67098,21.581243 -8.1304,36.700834 L 184.09959,68.5 185.03293,76 c 0.51333,4.125 1.66016,9.430885 2.54851,11.790854 1.93333,5.136051 2.98874,4.651887 6.78828,-3.114105 6.4573,-13.198239 8.86619,-20.299687 11.93232,-35.176749 1.05488,-5.118294 1.58491,-6.049647 3.60688,-6.337845 1.97489,-0.281488 2.27921,0.01044 1.8243,1.75 C 211.43293,46.06047 211.6041,47 212.1136,47 c 0.5095,0 4.95838,-2.025 9.8864,-4.5 9.85413,-4.949043 11.12792,-5.229225 13.40793,-2.949212 1.21255,1.212552 1.41517,2.848346 0.92897,7.5 C 235.9949,50.322855 235.99505,53 236.33722,53 c 0.34217,0 1.52225,-1.764374 2.62239,-3.92083 2.44469,-4.791983 10.18306,-12.802714 13.63536,-14.115279 3.78815,-1.44025 8.99409,-1.163973 10.41899,0.552933 1.50367,1.811802 0.86735,10.639679 -2.03548,28.239247 C 258.99467,75.78373 258.3895,88 259.77749,88 c 0.42763,0 1.7985,-0.715136 3.04638,-1.589191 1.24789,-0.874055 2.92302,-1.338178 3.72251,-1.031384 2.68308,1.029592 1.48797,3.562402 -2.68557,5.691583 -4.11105,2.097304 -4.15693,2.098445 -6.75,0.1678 -4.42441,-3.294157 -4.70222,-7.835876 -1.74175,-28.474799 C 256.81608,52.676118 258,42.72691 258,40.654658 l 0,-3.76773 -3.02996,1.789844 c -1.66648,0.984414 -4.34675,3.14842 -5.95616,4.808904 -3.9032,4.027079 -11.65042,17.73043 -13.7179,24.264324 -0.95472,3.017221 -2.25213,5.25 -3.05065,5.25 -1.13846,0 -1.33125,-2.709581 -1.06738,-15.001396 0.17713,-8.250768 0.0407,-15.000768 -0.30311,-15 -0.8008,0.0018 -14.97624,6.610169 -16.6058,7.741387 -0.94957,0.65917 -0.75584,2.101025 0.84744,6.307261 1.45485,3.816808 1.94106,6.900198 1.6206,10.27724 -0.89143,9.394073 -7.57835,13.648653 -10.78335,6.860955 l -1.56506,-3.314554 -3.80927,9.624425 C 194.83637,95.005529 190.82276,98.734464 186.31284,93.75 z m 24.8939,-32.49443 c -0.22866,-2.334436 -0.81872,-3.995379 -1.31124,-3.690983 -1.07753,0.665945 -1.20847,11.789108 -0.15124,12.846344 1.08943,1.089426 1.94273,-4.25238 1.46248,-9.155361 z M 189.17575,38.5 c 2.36616,-8.959353 3.63987,-26.5 1.92428,-26.5 -2.91246,0 -5.59446,11.845922 -6.5658,29 -0.57971,10.237882 -0.55227,10.425109 1.09913,7.5 0.93153,-1.65 2.5256,-6.15 3.54239,-10 z"
     id="path3096"
     inkscape:connector-curvature="0"
     sodipodi:nodetypes="ssscsssssssscsssssscsssssccsssssssssssssssssscccsssssscssssssssscsssssssssssscsssscsssscsssssssssssssssssssscsscssssssscsssssssssssssssssssscssssssssscssssssssssscssssssssscsssssssscssssssscssssscsssssscssssscssssssssssscsssscsssssscssssssssssscssssscssssssssssssssssssscsssssssssscsssscssscssssscsssssssssssssssssssssscssssscsssscsssssssssss" />
  <path
     style="fill:#000000;fill-opacity:1;fill-rule:nonzero;stroke:none"
     id="path3117"
     d="m 39.11312,25.149191 c 0.26038,-0.07225 0.531447,-0.09273 0.799807,-0.113399 0.262306,-0.01415 0.525101,-0.01655 0.787733,-0.01834 0.24816,0.002 0.496328,0.002 0.744493,0.0013 0.168011,0.0016 0.308902,0.09105 0.466329,0.133663 0.155893,0.04056 0.274932,0.148139 0.416345,0.21793 0.152077,0.0774 0.301993,0.157115 0.45114,0.23987 0.02251,0.0097 0.04501,0.01947 0.06752,0.02921 0,0 -1.048906,0.69314 -1.048906,0.69314 l 0,0 c -0.02403,-0.01239 -0.04807,-0.02477 -0.07211,-0.03716 -0.146633,-0.08523 -0.299915,-0.156953 -0.449413,-0.236927 -0.131413,-0.07479 -0.254526,-0.162431 -0.404861,-0.197149 -0.143545,-0.05001 -0.27995,-0.115551 -0.436794,-0.108436 -0.248287,-0.0014 -0.496588,-0.0026 -0.744873,-2.2e-4 -0.258921,1.98e-4 -0.518135,0.0014 -0.776401,0.02213 -0.268937,0.02356 -0.540047,0.05327 -0.795057,0.147439 0,0 0.995041,-0.773043 0.995041,-0.773043 z"
     inkscape:connector-curvature="0" />
  <path
     style="fill:#000000;fill-opacity:1;fill-rule:nonzero;stroke:none"
     id="path3119"
     d="m 40.610329,25.48326 c -0.213982,-0.07692 -0.43837,-0.113012 -0.663636,-0.135789 -0.264387,-0.02024 -0.529819,-0.02094 -0.794834,-0.02137 -0.189001,-0.008 -0.373041,0.002 -0.558832,0.03449 0,0 1.002675,-0.750907 1.002675,-0.750907 l 0,0 c 0.18727,-0.02201 0.374935,-0.01701 0.563249,-0.01447 0.268827,0.0024 0.53831,0.0024 0.806011,0.03036 0.229045,0.03019 0.452098,0.08365 0.677285,0.133694 0,0 -1.031918,0.724 -1.031918,0.724 z"
     inkscape:connector-curvature="0" />
  <g
     inkscape:groupmode="layer"
     id="layer1"
     inkscape:label="Layer" />
</svg>
