<svg xmlns="http://www.w3.org/2000/svg" width="287" height="63" viewBox="0 0 286.5 63"><path d="M31.5 42.1c5.8 0 10.5-4.7 10.5-10.5 0-5.8-4.7-10.5-10.5-10.5 -5.8 0-10.5 4.7-10.5 10.5C21.1 37.5 25.7 42.1 31.5 42.1L31.5 42.1zM31.5 52c11.1 0 20.1-9 20.1-20.1 0-11.1-9-20.1-20.1-20.1 -11.1 0-20.1 9-20.1 20.1C11.4 43 20.4 52 31.5 52L31.5 52zM1.2 31.9c0-16.7 13.6-30.3 30.3-30.3 16.7 0 30.3 13.6 30.3 30.3 0 16.7-13.6 30.3-30.3 30.3C14.8 62.2 1.2 48.6 1.2 31.9L1.2 31.9z" fill="#EB2D2D"/><polygon points="71.7 10.1 106.2 10.1 106.2 18.8 94.3 18.8 94.3 53.8 83.8 53.8 83.8 18.9 71.7 18.9 71.7 10.1 "/><path d="M158.2 18.9h-9.7v8.7c0 0 7.6 0 8.7 0 3-0.1 5.4-1.4 5.4-4.4C162.6 20 160.6 18.9 158.2 18.9L158.2 18.9zM138.5 10.1c0 0 7.9 0 20.5 0 11.7 0 13.3 8 13.3 12.6 0 6.7-5.8 10.1-6.3 10.3 0 0 5.1 1.9 5.1 7.7v8.1c0 3.3 2 4.2 2.4 4.9h-8.3c-4-0.4-3.9-3.6-3.9-5.4v-7c-0.1-1.7-0.6-3.6-4.2-3.7h-8.4v16.1h-10.1L138.5 10.1 138.5 10.1z"/><polygon points="216.8 10.1 216.8 53.8 248.2 53.8 248.2 44.8 227 44.8 227 35 245.1 35 245.1 26.8 227 26.8 227 18.9 248.2 18.9 248.2 10.1 216.8 10.1 "/><polygon points="249.7 18.9 262.2 18.9 262.2 53.8 272.5 53.8 272.5 18.9 285.1 18.9 285.1 10.1 249.7 10.1 249.7 18.9 "/><path d="M117.1 25.5l-3.7 11.3h7.7L117.1 25.5 117.1 25.5zM111.3 10.1h11.2l15.3 43.6H126.9l-3.2-9.1h-12.9l-3 9.1H97.1L111.3 10.1 111.3 10.1z"/><path d="M213.2 29.4h-18.8v8.5h8.9c0 1.7 0.3 3.5-1.8 5.9 -0.7 0.8-3.2 2.7-6.6 2.7 -2.9 0-4.9-0.8-6.7-2.3 -4-3.4-4.9-9.6-4.9-12.9 0-4.1 1.6-14.4 11.7-14.8 0 0 6.8-0.4 8.6 7.8h9.5c-0.2-4.2-5-15.9-18-15.9 -4.5 0-10.2 1.3-14.9 6.1 -3.4 3.4-6.5 9.2-6.5 17.3 0 8.8 3.2 14.5 6.2 17.6 5.2 5.5 10.4 5.9 13.1 5.9 2.2 0 6.3-0.3 11.7-3.9l1.4 2.5h7.1V29.4L213.2 29.4z"/><path d="M277.3 50.9h0.5c0.3 0 0.6-0.1 0.6-0.4 0-0.3-0.4-0.4-0.6-0.4h-0.5V50.9L277.3 50.9zM276.7 49.6h1.2c0.8 0 1.2 0.2 1.2 0.9 0 0.6-0.4 0.8-0.8 0.8l0.8 1.3h-0.6l-0.7-1.3h-0.4v1.3h-0.6V49.6L276.7 49.6zM277.8 53.3c1.1 0 2.1-0.9 2.1-2.2 0-1.3-0.9-2.2-2.1-2.2 -1.2 0-2.1 0.9-2.1 2.2C275.7 52.4 276.6 53.3 277.8 53.3L277.8 53.3zM277.8 48.4c1.5 0 2.8 1.1 2.8 2.7 0 1.7-1.3 2.8-2.8 2.8 -1.5 0-2.8-1.1-2.8-2.8C274.9 49.5 276.3 48.4 277.8 48.4L277.8 48.4z"/></svg>