<?xml version="1.0" encoding="UTF-8" standalone="no"?>
<!-- Created with Inkscape (http://www.inkscape.org/) -->

<svg
   xmlns:dc="http://purl.org/dc/elements/1.1/"
   xmlns:cc="http://creativecommons.org/ns#"
   xmlns:rdf="http://www.w3.org/1999/02/22-rdf-syntax-ns#"
   xmlns:svg="http://www.w3.org/2000/svg"
   xmlns="http://www.w3.org/2000/svg"
   xmlns:sodipodi="http://sodipodi.sourceforge.net/DTD/sodipodi-0.dtd"
   xmlns:inkscape="http://www.inkscape.org/namespaces/inkscape"
   width="183.35608mm"
   height="33.679585mm"
   viewBox="0 0 649.68689 119.33711"
   id="svg2"
   version="1.1"
   inkscape:version="0.91 r13725"
   sodipodi:docname="tendr-logo.svg">
  <defs
     id="defs4" />
  <sodipodi:namedview
     id="base"
     pagecolor="#ffffff"
     bordercolor="#666666"
     borderopacity="1.0"
     inkscape:pageopacity="0.0"
     inkscape:pageshadow="2"
     inkscape:zoom="1.4"
     inkscape:cx="185.74124"
     inkscape:cy="122.61918"
     inkscape:document-units="px"
     inkscape:current-layer="layer3"
     showgrid="false"
     inkscape:window-width="1920"
     inkscape:window-height="1018"
     inkscape:window-x="-8"
     inkscape:window-y="-8"
     inkscape:window-maximized="1"
     fit-margin-top="0"
     fit-margin-left="0"
     fit-margin-right="0"
     fit-margin-bottom="0"
     inkscape:object-paths="true" />
  <metadata
     id="metadata7">
    <rdf:RDF>
      <cc:Work
         rdf:about="">
        <dc:format>image/svg+xml</dc:format>
        <dc:type
           rdf:resource="http://purl.org/dc/dcmitype/StillImage" />
        <dc:title></dc:title>
      </cc:Work>
    </rdf:RDF>
  </metadata>
  <g
     inkscape:groupmode="layer"
     id="layer3"
     inkscape:label="Layer 2"
     style="display:inline">
    <g
       id="g4217">
      <path
         inkscape:connector-curvature="0"
         id="path4192"
         d="m 382.18891,385.22727 c -14.33937,-4.03372 -23.6057,-16.92444 -24.60765,-34.23224 -1.44622,-24.98268 14.0235,-43.65418 36.19866,-43.69069 18.1447,-0.0299 28.70614,11.29848 31.89591,34.21189 l 0.78636,5.6488 -27.26272,0 -27.26272,0 0,4.45366 c 0,19.40604 18.37344,31.61398 35.26993,23.43452 3.4131,-1.65222 6.4962,-4.45819 8.03207,-7.3101 1.92421,-3.57311 3.33301,-4.62861 6.17778,-4.62861 4.37823,0 4.38847,0.0567 1.16049,6.38376 -7.14554,14.00633 -23.65525,20.43602 -40.38811,15.72901 z"
         style="display:inline;fill:#000000;fill-opacity:1;fill-rule:evenodd;stroke:none;stroke-opacity:1"
         transform="translate(-45.156549,-267.41768)" />
      <path
         inkscape:connector-curvature="0"
         id="path4190"
         d="m 411.33272,334.39808 c -2.9521,-21.53785 -23.26513,-27.46874 -34.68836,-10.12812 -1.79415,2.7236 -3.66378,7.49384 -4.15473,10.60065 l -0.89263,5.64881 20.28737,0 20.28737,0 -0.83902,-6.12134 z"
         style="display:inline;fill:#ffffff;fill-opacity:1;fill-rule:evenodd;stroke:none;stroke-opacity:1"
         transform="translate(-45.156549,-267.41768)" />
      <path
         inkscape:connector-curvature="0"
         id="path4188"
         d="m 561.14822,385.79947 c -11.96889,-2.93612 -20.43874,-13.72392 -23.08284,-29.39976 -2.69769,-15.99371 2.19557,-32.80601 12.17132,-41.81852 6.50143,-5.87365 10.10304,-7.28983 18.53939,-7.28983 8.14077,0 13.96329,2.33487 19.41327,7.78487 2.29749,2.29747 4.37278,4.1773 4.61177,4.17737 0.31916,1.1e-4 0.17237,-31.46042 -0.19381,-41.53521 -0.02,-0.54827 -2.72771,-0.99685 -6.01728,-0.99685 -5.94941,0 -5.98106,-0.0247 -5.98106,-4.65193 l 0,-4.65193 12.61175,0 12.61177,0 0.34719,54.16175 0.34718,54.16181 6.39187,0.4083 c 6.31593,0.40335 6.38699,0.45864 5.98105,4.65186 l -0.41081,4.2437 -12.29439,0.38207 -12.29438,0.38222 -0.0422,-8.35695 c -0.039,-7.70622 -0.19618,-8.14997 -2.01885,-5.69857 -3.93519,5.29225 -8.95811,10.09949 -12.38412,11.85195 -4.73563,2.42261 -13.22608,3.43998 -18.30676,2.19365 z"
         style="display:inline;fill:#000000;fill-opacity:1;fill-rule:evenodd;stroke:none;stroke-opacity:1"
         transform="translate(-45.156549,-267.41768)" />
      <path
         inkscape:connector-curvature="0"
         id="path4186"
         d="m 580.71307,374.71267 c 9.34639,-6.29855 14.29839,-19.66151 12.64917,-34.13399 -1.25668,-11.02768 -5.64383,-18.59311 -12.96772,-22.36208 -7.88317,-4.05683 -14.19609,-3.0717 -20.4607,3.19292 -5.63004,5.62997 -7.74053,12.90378 -7.66585,26.42014 0.0464,8.38999 0.72865,12.03257 3.23462,17.26825 5.63433,11.77184 16.09163,15.76006 25.21048,9.61476 z"
         style="display:inline;fill:#ffffff;fill-opacity:1;fill-rule:evenodd;stroke:none;stroke-opacity:1"
         transform="translate(-45.156549,-267.41768)" />
      <path
         inkscape:connector-curvature="0"
         id="path4184"
         d="M 87.515684,367.05537 C 69.6119,356.84672 54.509751,348.49416 53.955347,348.49416 c -3.252075,0 0.469709,-3.01268 11.600128,-9.39006 6.934476,-3.97319 12.616471,-7.58174 12.626664,-8.01897 0.0099,-0.43723 -2.257325,-1.82122 -5.038941,-3.07562 l -5.05747,-2.28057 -11.224274,6.62648 -11.224287,6.62647 -0.372126,-17.35604 c -0.204664,-9.54585 -0.11115,-17.61714 0.207981,-17.9362 0.31906,-0.31904 9.757149,4.74326 20.973525,11.2496 11.216377,6.50633 27.95093,16.12547 37.187883,21.37589 l 16.79447,9.54629 36.00871,-20.64457 c 19.80477,-11.35451 36.91911,-20.99393 38.03183,-21.42092 1.75071,-0.67182 2.02313,1.67377 2.02313,17.41977 0,10.00779 -0.44858,17.9967 -0.99684,17.75314 -0.54826,-0.24371 -6.1734,-3.30161 -12.50031,-6.79519 l -11.50345,-6.35214 -4.7783,2.27872 c -2.62806,1.25313 -4.77813,2.61628 -4.77793,3.02927 1.8e-4,0.41284 5.68218,3.94724 12.62665,7.85408 6.94448,3.90698 12.60934,7.49554 12.58858,7.97474 -0.0296,0.68349 -63.15609,37.2167 -66.30456,38.37244 -0.4281,0.15722 -15.42694,-8.06675 -33.330726,-18.2754 z"
         style="display:inline;fill:#39f1d3;fill-opacity:1;fill-rule:evenodd;stroke:none;stroke-opacity:1"
         transform="translate(-45.156549,-267.41768)" />
      <path
         inkscape:connector-curvature="0"
         id="path4182"
         d="m 276.23992,381.11586 0,-4.59374 9.63613,-0.39044 9.63615,-0.39044 0.34929,-46.85161 0.34928,-46.8516 -11.79786,0 c -10.77207,0 -12.08313,0.28527 -15.0788,3.28094 -1.81142,1.81142 -4.34411,7.02039 -5.65463,11.62983 -1.30553,4.59189 -2.80152,9.84414 -3.32441,11.67168 -0.67677,2.36543 -1.87617,3.32281 -4.16274,3.32281 l -3.21205,0 -0.41358,-18.93999 -0.41357,-18.94001 49.92337,0 49.92341,0 0,19.27228 0,19.27228 -3.11131,0 c -2.70675,0 -3.3298,-0.99369 -4.79168,-7.64245 -2.53121,-11.51196 -6.43217,-19.7125 -10.19212,-21.42564 -1.81277,-0.82596 -8.05263,-1.50173 -13.86637,-1.50173 l -10.57044,0 0,47.18392 0,47.18378 9.96841,0 9.96842,0 0,4.652 0,4.65186 -26.58245,0 -26.58245,0 0,-4.59373 z"
         style="display:inline;fill:#000000;fill-opacity:1;fill-rule:evenodd;stroke:none;stroke-opacity:1"
         transform="translate(-45.156549,-267.41768)" />
      <path
         inkscape:connector-curvature="0"
         id="path4180"
         d="m 438.39287,381.13006 c 0,-4.51986 0.0818,-4.58437 6.31333,-4.98417 l 6.31334,-0.40519 0,-29.24069 0,-29.24063 -6.31334,-0.4051 c -6.01093,-0.3857 -6.31333,-0.5926 -6.31333,-4.31964 l 0,-3.91456 12.62667,0 12.62666,0 0,8.6393 c 0,4.7516 0.44858,8.61661 0.99684,8.58883 0.54826,-0.0284 2.61947,-2.39696 4.60266,-5.26499 5.44668,-7.87678 13.13281,-12.383 22.09998,-12.9568 10.04668,-0.64285 15.83444,2.34991 19.81664,10.24688 2.80075,5.55399 2.99054,7.59949 2.99054,32.23129 l 0,26.30074 6.64561,0 6.64561,0 0,4.68844 0,4.68843 -18.94,-0.36875 -18.93999,-0.36875 -0.41649,-4.31968 c -0.41491,-4.30324 -0.39343,-4.31969 5.64877,-4.31969 l 6.06526,0 0,-23.30239 c 0,-26.44195 -1.05259,-30.98266 -7.8332,-33.79124 -8.72862,-3.61552 -20.23292,1.78524 -25.40713,11.92757 -2.29471,4.49789 -2.64598,7.84033 -2.64598,25.17634 l 0,19.98972 5.31649,0 c 5.1899,0 5.31649,0.11059 5.31649,4.652 l 0,4.65186 -18.60771,0 -18.60772,0 0,-4.57913 z"
         style="display:inline;fill:#000000;fill-opacity:1;fill-rule:evenodd;stroke:none;stroke-opacity:1"
         transform="translate(-45.156549,-267.41768)" />
      <path
         inkscape:connector-curvature="0"
         id="path4178"
         d="m 633.77389,381.09176 c 0,-4.66844 0.0232,-4.68659 5.98105,-4.68659 l 5.98105,0 0,-29.90518 0,-29.90533 -5.98105,0 c -5.75953,0 -5.98105,-0.14767 -5.98105,-3.98737 l 0,-3.98737 12.62666,0 12.62666,0 0,8.20261 0,8.20266 4.05615,-6.1237 c 7.94029,-11.98765 23.32983,-15.26176 30.12649,-6.40938 2.54216,3.31108 2.03631,10.41556 -0.95457,13.4064 -5.48904,5.48903 -15.94947,1.56646 -15.94947,-5.98105 0,-1.82754 -0.50965,-3.3228 -1.13257,-3.3228 -3.01152,0 -10.29627,6.60535 -13.05651,11.8389 -2.85677,5.41644 -3.08952,7.44408 -3.08952,26.91477 l 0,21.05684 8.05895,0 8.05895,0 -0.4165,4.31969 -0.41649,4.31968 -20.26912,0.36677 -20.26911,0.3669 0,-4.68645 z"
         style="display:inline;fill:#000000;fill-opacity:1;fill-rule:evenodd;stroke:none;stroke-opacity:1"
         transform="translate(-45.156549,-267.41768)" />
      <path
         inkscape:connector-curvature="0"
         id="path3346"
         d="M 84.559872,314.90078 C 65.03039,303.77093 49.1806,294.23743 49.338124,293.71524 c 0.157525,-0.52221 7.678997,-5.18195 16.714365,-10.35498 l 16.427969,-9.40551 19.053052,10.78295 19.05304,10.78295 18.73382,-10.85948 18.73382,-10.85946 17.13269,9.76693 c 9.42299,5.37181 16.72588,10.1749 16.22867,10.67353 -0.80507,0.80735 -70.70506,41.00925 -71.16215,40.92773 -0.10194,-0.0184 -16.16403,-9.13926 -35.693528,-20.26912 z"
         style="display:inline;fill:#39ddd3;fill-opacity:1;fill-rule:evenodd;stroke:none;stroke-opacity:1"
         transform="translate(-45.156549,-267.41768)" />
      <path
         sodipodi:nodetypes="cccsscc"
         style="display:inline;fill:#39f1d3;fill-opacity:1;fill-rule:evenodd;stroke:none;stroke-opacity:1"
         d="m 120.58655,295.52065 18.73382,-10.85948 18.73382,-10.85946 17.13269,9.76693 c 9.42299,5.37181 16.72588,10.1749 16.22867,10.67353 -0.80507,0.80735 -70.70506,41.00925 -71.16215,40.92773 0,0 0,0 0.33315,-39.64925 z"
         id="path4198"
         inkscape:connector-curvature="0"
         transform="translate(-45.156549,-267.41768)" />
      <path
         sodipodi:nodetypes="ssscccccscssccs"
         style="display:inline;fill:#39ddd3;fill-opacity:1;fill-rule:evenodd;stroke:none;stroke-opacity:1"
         d="M 87.515684,367.05537 C 69.6119,356.84672 54.509751,348.49416 53.955347,348.49416 c -3.252075,0 0.469709,-3.01268 11.600128,-9.39006 6.934476,-3.97319 12.616471,-7.58174 12.626664,-8.01897 0.0099,-0.43723 -2.257325,-1.82122 -5.038941,-3.07562 l -5.05747,-2.28057 -11.224274,6.62648 -11.224287,6.62647 -0.372126,-17.35604 c -0.204664,-9.54585 -0.11115,-17.61714 0.207981,-17.9362 0.31906,-0.31904 9.757149,4.74326 20.973525,11.2496 11.216377,6.50633 27.95093,16.12547 37.187883,21.37589 l 16.79447,9.54629 c 0.41751,39.46934 0,0 0.41751,39.46934 -0.4281,0.15722 -15.42694,-8.06675 -33.330726,-18.2754 z"
         id="path4203"
         inkscape:connector-curvature="0"
         transform="translate(-45.156549,-267.41768)" />
    </g>
  </g>
</svg>
